/* XPM */
static char *_4ed2fc4e0b442afc6e65568b3ae56afpMMJD6LyxDRTUsi7[] = {
/* columns rows colors chars-per-pixel */
"40 40 68 1 ",
"  c gray20",
". c #4C4C4C",
"X c gray35",
"o c gray40",
"O c #6F7069",
"+ c #6E746E",
"@ c #6A7B6C",
"# c #73706A",
"$ c #74746D",
"% c #7D746E",
"& c #727A6E",
"* c #726D73",
"= c #6C7073",
"- c #6E7374",
"; c #6E7B75",
": c gray45",
"> c #747673",
", c #7A7675",
"< c #757B74",
"1 c #7C7E77",
"2 c #757C7C",
"3 c #7D7F7D",
"4 c #7C8377",
"5 c #7E8977",
"6 c #77837B",
"7 c #778478",
"8 c #7D847C",
"9 c #7F8A7E",
"0 c #828778",
"q c #83807D",
"w c #82857E",
"e c #89857E",
"r c #848B7F",
"t c #7D7F81",
"y c #827D81",
"u c #7E8482",
"i c #7E8B84",
"p c #808080",
"a c #848583",
"s c #858C85",
"d c #8B8D86",
"f c #868D8A",
"g c #8C8E8A",
"h c #869385",
"j c #8C9387",
"k c #87938C",
"l c #8E958C",
"z c #8F9B8E",
"x c #929085",
"c c #949687",
"v c #91908A",
"b c #93968E",
"n c #9A968E",
"m c #909A88",
"M c #949B8E",
"N c #999B8E",
"B c #8F8F97",
"V c #8F9693",
"C c #8F9B92",
"Z c #8D9B9A",
"A c #949793",
"S c #949B93",
"D c #9A9893",
"F c #999A94",
"G c #93A28D",
"H c #9BA18C",
"J c #8FA195",
"K c #94A393",
/* pixels */
"913uu9jSSCKSSSKnNSSSCZGSCV6995mCCd<><>$=",
"u6493agSMMSAVSSnMSzfizzzSVu335bSSj1>>>>+",
"u0553wVAbbgfVASMbzhu6klbSSau89cAMce<>>>+",
"867638fABd,$dASbNc5633dbAAdiielSMMj3$&>-",
"677618kMh4$,dnMSMc47344sCSAASlzCbbmk4<+>",
"49987dlMmh$slbMSSh34840dSFDMVbVSAllml4<,",
"jfkdjbAMMMaVbAMSSj49940dASMMzAAAlsdMSgds",
"SAAAMbMMMFZfbDSbbbgjgdjjbSVbMDbAbdjMSSSN",
"MAASSMAVCmkrgDSzMSbMNMMMMdgfdfddlbSSSSAS",
"FSljmkzCCz90vDSlMSDlMMNMMaqq38w0aVbASADS",
"F41<&,sVCCVMAA  ABZCMMSKMw6738883aVMMSSA",
"D6@@,<<sbAAbMb : AV     Mau9q0uuuuaBKSzl",
"w>OO*>>rbADbAl p:  ::::: u3308aa8taBASSl",
">**#++>9jVDAl po:X::oooo: aq4tyww3agAAAm",
"2>>%$&@;ugSAa .ooo:.ooooo Agtt83tw9bDAbb",
"b1$%#O&>aVCAnx    :..ooo. lAgq03380mVMMM",
"S8>>$-,8gSbMbc909 :...oooo lVaw8admzzVMM",
"M7>,--3lSAlMSbrsh :...   o lAVdsfMSzdglN",
"Nr4134jDSAAFSDbS :.... jd CCMASlbVlMswdb",
"NbcMSMMMSFDMMMbV :..... bSVCzAZCAMSMbSAb",
"GMMbbMMMAASSMbM :....... CKZClASMMMDDSMb",
"zzbbssmMAAMhlAM :.....::: SkiCZVbbMnMSMM",
"zCk9usAAAAS9ad :...:::.. MSVkFsuwdbbSSMM",
"Gzk68hlAAAk83 :::::.... DNSCCf943dvbMbbb",
"Mzd83rjAAV844 ::....... FbnDS4447sbClcbA",
"Sbd127jAAb644 :.:...... NSlSC7734rMj9fAA",
"KSdqgmbVblfCbc :.:..... sSMbz041rbms4wsC",
"KSldASMMMMASAb :..::... aMMzVsrrfSle44sl",
"JAnASSHHMMblCM :....::.. zJCAVzbbSlw38sA",
"ASSMSCzzhsNNNS :......::: MMSzCSVMm744wA",
"CVCCSSMSh9MlASD :....... zMMm67rMCllbmkV",
"SCCSSSSzmjbbbSA :...... Szzmw<<5hmSSbASb",
"NMMmSSSMbMAMSSA :..... SA9s6><>>7hbznAMN",
"SMMzssdaadsSMMAb :.... Cl<$>-,&$&8zSDbMM",
"SAld2>>>,,<bbbAl :... bAz;-+O>+&>uCSAbbg",
"MMd<>,$$$$-VbbMSS :.. bMV>=-->&>uVCmsVk8",
"wks-&&&#$$fCMzMFSl :: bbAk7&&&>aCZk94ae4",
"9sfd<$%$#2bVCMMrsw4  : MMAcgssdbMMlja844",
"69fk98q3qqlAbAS063177 zMcnDDbzSDSMllut34",
"886iSSAZAcmVAbA93833avcbnnAbbCMCCCk8tt32"
};
