/* XPM */
static char *_672253353[] = {
/* columns rows colors chars-per-pixel */
"40 40 68 1 ",
"  c gray20",
". c #4C4C4C",
"X c gray35",
"o c gray40",
"O c #6F7069",
"+ c #6E746E",
"@ c #6A7B6C",
"# c #73706A",
"$ c #74746D",
"% c #7D746E",
"& c #727A6E",
"* c #726D73",
"= c #6C7073",
"- c #6E7374",
"; c #6E7B75",
": c gray45",
"> c #747673",
", c #7A7675",
"< c #757B74",
"1 c #7C7E77",
"2 c #757C7C",
"3 c #7D7F7D",
"4 c #7C8377",
"5 c #7E8977",
"6 c #77837B",
"7 c #778478",
"8 c #7D847C",
"9 c #7F8A7E",
"0 c #828778",
"q c #83807D",
"w c #82857E",
"e c #89857E",
"r c #848B7F",
"t c #787F81",
"y c #7D7F81",
"u c #827D81",
"i c #7E8482",
"p c #7E8B84",
"a c #808080",
"s c #848583",
"d c #858C85",
"f c #8B8D86",
"g c #868D8A",
"h c #8C8E8A",
"j c #869385",
"k c #8C9387",
"l c #87938C",
"z c #8E958C",
"x c #8F9B8E",
"c c #949687",
"v c #91908A",
"b c #93968E",
"n c #9A968E",
"m c #909A88",
"M c #949B8E",
"N c #999B8E",
"B c #8F8F97",
"V c #8F9693",
"C c #8F9B92",
"Z c #8D9B9A",
"A c #949793",
"S c #949B93",
"D c #9A9893",
"F c #999A94",
"G c #93A28D",
"H c #9BA18C",
"J c #8FA195",
"K c #94A393",
/* pixels */
"913ii9kSSCKSSSKnNSSSCZGSCV6995mCCf<><>$=",
"i6493shSMMSAVSSnMSxgpxxxSVi3     k1>>>>+",
"i0553wVAbbhgVASMbxji6lzbS   :::::   >>>+",
"867638gABf,$fASbNc5633f  :::.....::: &>-",
"677618lMj4$,fnMSMc4734 ::...........: +>",
"49987fzMmj$dzbMSSj348 :::::........  4<,",
"kglfkbAMMMsVbAMSSk49 ::....:::.... MShfd",
"SAAAMbMMMFZgbDSbbbhk :.:......::. kMSSSN",
"MAASSMAVCmlrhDSxMSbM :..:.......: SSSSAS",
"FSzkmlxCCx90vDSzMSDz :...:....   VbASADS",
"F41<&,dVCCVMAAbAABZC :....:.. 883sVMMSSA",
"D6@@,<<dbAAbMbswhAVs :....:. 0iiiisBKSxz",
"w>OO*>>rbADbAz0wfAAg :.....: 8ss8ysBASSz",
">**#++>9kVDAzf6wsvAM :....  4yuww3shAAAm",
"2>>%$&@;ihSAs49638gC :..  Ahyy83yw9bDAbb",
"b1$%#O&>sVCAn  669A :.. AgzAhq03380mVMMM",
"S8>>$-,8hSbMb : 9  :.. shvmzVsw8sfmxxVMM",
"M7>,--3zSAzMS a: o:..:: sAMzAVfdgMSxfhzN",
"Nr4134kDSAAF ao:Xo::ooo: ACCMASzbVzMdwfb",
"NbcMSMMMSFDM .oooooooooo SVCxAZCAMSMbSAb",
"GMMbbMMMAASSM    ..oooo. CKZCzASMMMDDSMb",
"xxbbddmMAAMjzAMbA  ..oooo SlpCZVbbMnMSMM",
"xCl9idAAAAS9sfdzAAb     o SVlFdiwfbbSSMM",
"Gxl68jzAAAl83w0zVAAzsuqf NSCCg943fvbMbbb",
"Mxf83rkAAV84485xVzAmsu3hFbnDS4447dbCzcbA",
"Sbf127kAAb644dMNNMz6w44fNSzSC7734rMk9gAA",
"KSfqhmbVbzgCbcbVMMhyy3wwdSMbx041rbmd4wdC",
"KSzfASMMMMASAbDCMbgityi8sMMxVdrrgSze44dz",
"JAnASSHHMMbzCMFzzk8i3338sxJCAVxbbSzw38dA",
"ASSMSCxxjdNNNSAbgii333hbVMMMSxCSVMm744wA",
"CVCCSSMSj9MzASDAdi8isgzbMxMMm67rMCzzbmlV",
"SCCSSSSxmkbbbSAMzfgghvAVSxxmw<<5jmSSbASb",
"NMMmSSSMbMAMSSAbnNSVVbSSA9d6><>>7jbxnAMN",
"SMMxddfssfdSMMAbbbMSSbCCz<$>-,&$&8xSDbMM",
"SAzf2>>>,,<bbbAzMbMMMMbAx;-+O>+&>iCSAbbh",
"MMf<>,$$$$-VbbMSSMbbDAbMV>=-->&>iVCmdVl8",
"wld-&&&#$$gCMxMFSz0wcbbbAl7&&&>sCZl94se4",
"9dgf<$%$#2bVCMMrdw44ilMMMAchddfbMMzks844",
"69gl98q3qqzAbAS063177kxMcnDDbxSDSMzziy34",
"886pSSAZAcmVAbA93833svcbnnAbbCMCCCl8yy32"
};
