/* XPM */
static char *bat_on_brown_right1670961400[] = {
/* columns rows colors chars-per-pixel */
"40 40 90 1 ",
"  c #373936",
". c #3C3D3C",
"X c #4A3B2D",
"o c #4D3F32",
"O c #3F403F",
"+ c #4E4033",
"@ c #534334",
"# c #584736",
"$ c #5A4837",
"% c #544639",
"& c #594738",
"* c #57493B",
"= c #5C4B3B",
"- c #614D3D",
"; c #65513E",
": c #68523F",
"> c #444444",
", c #474947",
"< c #484947",
"1 c #4C4C4C",
"2 c #574A41",
"3 c #5D4E41",
"4 c #4F514F",
"5 c #5F5146",
"6 c #5F534A",
"7 c #545454",
"8 c #575957",
"9 c #585758",
"0 c #5C5C5C",
"q c #624F42",
"w c #645242",
"e c #6A5543",
"r c #6E5946",
"t c #66564A",
"y c #69574B",
"u c #6C5A4B",
"i c #715D4B",
"p c #655A51",
"a c #6C5C51",
"s c #5E605E",
"d c #76614E",
"f c #79624E",
"g c #6E6054",
"h c #6F6158",
"j c #736254",
"k c #796553",
"l c #7D6B57",
"z c #75645A",
"x c #79675B",
"c c #766859",
"v c #7C6A5C",
"b c #646464",
"n c #676967",
"m c #686967",
"M c #6B6C6B",
"N c #7E6D61",
"B c #6F706F",
"V c #7F7063",
"C c #727472",
"Z c #7C7D7C",
"A c #816B56",
"S c #816D5C",
"D c #886F5C",
"F c #86715D",
"G c #8B725E",
"H c #816E62",
"J c #847265",
"K c #8A7564",
"L c #8D7866",
"P c #867469",
"I c #89766B",
"U c #8B7A6D",
"Y c #927B66",
"T c #927C6B",
"R c #987E6C",
"E c #8E7D71",
"W c #907F73",
"Q c #92806F",
"! c #9B816C",
"~ c #928074",
"^ c #998574",
"/ c #978579",
"( c #9A867B",
") c #9C8B7B",
"_ c #A18C7A",
"` c #828282",
"' c #878887",
"] c gray55",
"[ c #9F8D81",
"{ c #919191",
/* pixels */
"vPU~WE~EPt=-==&uU~~~~~~EPJrw;;;;::;*tvPP",
"UWWWWE~Pcu#@@@$hIEEEEE~UIENjy3*&%%%*aVEE",
"W~LJNUEPNhtwttiVUUIIUEEUUEUVczzhhhhjNPE~",
"WTFjtPIIEVNNvSJQULGVNIUEUEEEEPUUUIULEEE~",
"~Vu==vIEW~~UULUTQLl;yNU~EWWEEEEEUUUUEEE~",
"~aw=tJIEUQ~PKGKdw;;:+cU~EWEEEE[^YFjiNUE~",
"UczNPIJVJU>.   >;=-$%cU~~~WW^[)Gde;:cIEE",
"WJPU~PC,>1MmmMmm<,<s5VU~~~W()_Kie;-=cI~E",
"WEWWWMssss979779ssssbb~~~~~/)Q::;-=%vUW~",
"IIIEns89771111117888ssbZ~~~IVi--=%owJW~W",
"ridS~7>>1111111117ssBBss{~~EVw++@*hPW~WW",
"rffij4>,,11111414sBBBBBn1~~EIvzlNPUE~WTY",
"rirrw-waO11149MBMs4444bBM7~~~IIIEEWEUJSA",
"e--=$@&y`O1sbb9987111b08M,~~~~~EEE~EIHfj",
"-&&#+otaa>b009111114s074M1~~~~~~~^(QTPNJ",
"&@%3uNPIIB7O.O11111ss114M1Q~~~E~UU~j&qzE",
"HNHPIWWWEU0774<1119b4117b1KTWEWWUHa2%tPE",
"WWWWWWWWEIFLLJ><19M41117m1KDxHWTINt6pNEW",
"WEWWWWWWUJFGSje>10M41117m1HiqyEIPNpzIEE~",
"UPPPWWIPKRFr:w;>90011117M1rq*oIUUI~~EEWW",
"SAvHPIJKGk-:::=@01O11114M1w---PEUE~E~UUP",
"AkkxPJAkiw---#@-C00<>117M1eqyjEWEWEE~~UF",
"fidvUPie-$#@@#*zIEE>.<17m1vvHPWTU~EE~~LA",
"rrikWIu=##@@%5jPEEIIW4>19p9WWTWI'8sE/QKk",
"rrwyU~Na33qrzJEEEPHNII9>107Z]]QGM>.~/Eve",
"::eyEWUIPIIIUE~~Iz3oxIM194s71,'Mns.U~Pfe",
"rr:yIETHxI^WUPU~Ez52I9sMM99nBs4sCn4E/Je:",
"::-tHIvjaPWHjjI~ENhz9bMmnnBBBb0mMMC1^Ve:",
"ew=tHPhygJUutuIWWEI~7sbbbnnnnbbnns1O~Seq",
"e33uEEPPI~~QTR(WWWW~77bbbbns884111>`EHiq",
"*yvIWEEIJLRTLIKxvHIE94sbbbs1>>9sbnB~EJa&",
"hJUWEEIIILDkiiiteaz109999<>9bbWE~~~~EINt",
"JUWWUWUUPKiewww;-5u40>>>>>>EW^//WWWWEEIN",
"UIPJJUTLGA;=;=-=--;jsUc62tPEW^(^WWWWEEEE",
"Hr--ePWIlr=-------;jUQIPJJJTRRYDHJTIEUUI",
"ew--qHEJk:;----=---6pVIUJL!YAiyeixHPILU^",
"-----uPPve=&=$-$#@++aJIURRAie-::eikSJHSH",
"--=-&wHIFy#%%@@@+++-NPUTRGre--::werkJHxk",
"=&$#@3HEPj=%%%*%**wcUUEELi--:;;;:::iHHvi",
"3@XX@zEWEEPPJPPPPP~~~UUPr----;;;;---kHHP"
};
