/* XPM */
static char *_672253169[] = {
/* columns rows colors chars-per-pixel */
"40 40 69 1 ",
"  c gray20",
". c #4C4C4C",
"X c gray35",
"o c gray40",
"O c #6F7069",
"+ c #6E746E",
"@ c #6A7B6C",
"# c #73706A",
"$ c #74746D",
"% c #7D746E",
"& c #727A6E",
"* c #726D73",
"= c #6C7073",
"- c #6E7374",
"; c #6E7B75",
": c gray45",
"> c #747673",
", c #7A7675",
"< c #757B74",
"1 c #7C7E77",
"2 c #757C7C",
"3 c #7D7F7D",
"4 c #7C8377",
"5 c #7E8977",
"6 c #77837B",
"7 c #778478",
"8 c #7D847C",
"9 c #7F8A7E",
"0 c #828778",
"q c #83807D",
"w c #82857E",
"e c #89857E",
"r c #848B7F",
"t c #787F81",
"y c #7D7F81",
"u c #827D81",
"i c #7E8482",
"p c #7E8B84",
"a c #808080",
"s c #848583",
"d c #858C85",
"f c #8B8D86",
"g c #868D8A",
"h c #8C8E8A",
"j c #869385",
"k c #8C9387",
"l c #87938C",
"z c #8E958C",
"x c #8F9B8E",
"c c #929085",
"v c #949687",
"b c #91908A",
"n c #93968E",
"m c #9A968E",
"M c #909A88",
"N c #949B8E",
"B c #999B8E",
"V c #8F8F97",
"C c #8F9693",
"Z c #8F9B92",
"A c #8D9B9A",
"S c #949793",
"D c #949B93",
"F c #9A9893",
"G c #999A94",
"H c #93A28D",
"J c #9BA18C",
"K c #8FA195",
"L c #94A393",
/* pixels */
"913ii9kDDZLDDDLmBDDDZAHDZC6995MZZf<><>$=",
"i6493shDNNDSCDDmNDxgpxxxDCi335nDDk1>>>>+",
"i0553wCSnnhgCSDNnxji6lznDDsi89vSNve<>>>+",
"867638gSVf,$fSDnBv5633fnSSfppezDNNk3$&>-",
"677618lNj4$,fmNDNv47344dZDSSDzxZnnMl4<+>",
"49987fzNMj$dznNDDj34840fDGFNCnCDSzzMz4<,",
"kglfknSNNNsCnSNDDk49940fSDNNxSSSzdfNDhfd",
"DSSSNnNNNGAgnFDnnnhkhfkknDCnNFnSnfkNDDDB",
"NSSDDNSCZMlrhFDxNDnNBNNNNfhgfgffznDDDDSD",
"GDzkMlxZZx90bFDzNDFzNNBNNsqq38w0sCnSDSFD",
"G41<&,dCZZCNSSnSSVAZNNDLNw6738883sCNNDDS",
"F6@@,<<dnSSnNnswhSCsikZNNsi9q0iiiisVLDxz",
"w>OO*>>rnSFnSz0wfSSgfxZDzi3308ss8ysVSDDz",
">**#++>9kCFSzf6wsbSNzZDSn  q4yuww3shSSSM",
"2>>%$&@;ihDSs4963     Sn : hyy83yw9nFSnn",
"n1$%#O&>sCZSmci6 :::::  :a Shq03380MCNNN",
"D8>>$-,8hDnNnv9 :oooo::X:oa Csw8sfMxxCNN",
"N7>,--3zDSzNDnr ooooo.:ooo. SCfdgNDxfhzB",
"Br4134kFDSSGDFn .ooo..:    ZNSDznCzNdwfn",
"BnvNDNNNDGFNNN oooo..: nnDCZxSAZSNDNnDSn",
"HNNnnNNNSSDDNn o  ...: gDZLAZzSDNNNFFDNn",
"xxnnddMNSSNjzSN  .:...:  ZDlpZACnnNmNDNN",
"xZl9idSSSSD9s  :...::..::  ClGdiwfnnDDNN",
"Hxl68jzSSS   ...::::::::::: Zg943fbnNnnn",
"Nxf83rkSS ::..........:::  FD4447dnZzvnS",
"Dnf127kSSn  ::::::::::   DzDZ7734rNk9gSS",
"LDfqhMnCnzgZ          wwdDNnx041rnMd4wdZ",
"LDzfSDNNNNSDSnFZNngityi8sNNxCdrrgDze44dz",
"KSmSDDJJNNnzZNGzzk8i3338sxKZSCxnnDzw38dS",
"SDDNDZxxjdBBBDSngii333hnCNNNDxZDCNM744wS",
"ZCZZDDNDj9NzSDFSdi8isgznNxNNM67rNZzznMlC",
"DZZDDDDxMknnnDSNzfgghbSCDxxMw<<5jMDDnSDn",
"BNNMDDDNnNSNDDSnmBDCCnDDS9d6><>>7jnxmSNB",
"DNNxddfssfdDNNSnnnNDDnZZz<$>-,&$&8xDFnNN",
"DSzf2>>>,,<nnnSzNnNNNNnSx;-+O>+&>iZDSnnh",
"NNf<>,$$$$-CnnNDDNnnFSnNC>=-->&>iCZMdCl8",
"wld-&&&#$$gZNxNGDz0wvnnnSl7&&&>sZAl94se4",
"9dgf<$%$#2nCZNNrdw44ilNNNSvhddfnNNzks844",
"69gl98q3qqzSnSD063177kxNvmFFnxDFDNzziy34",
"886pDDSASvMCSnS93833sbvnmmSnnZNZZZl8yy32"
};
