/* XPM */
static char *_672253328[] = {
/* columns rows colors chars-per-pixel */
"40 40 70 1 ",
"  c gray20",
". c #4C4C4C",
"X c gray35",
"o c #616261",
"O c gray40",
"+ c #6F7069",
"@ c #6E746E",
"# c #6A7B6C",
"$ c #73706A",
"% c #74746D",
"& c #7D746E",
"* c #727A6E",
"= c #726D73",
"- c #6C7073",
"; c #6E7374",
": c #6E7B75",
"> c gray45",
", c #747673",
"< c #7A7675",
"1 c #757B74",
"2 c #7C7E77",
"3 c #757C7C",
"4 c #7D7F7D",
"5 c #7C8377",
"6 c #7E8977",
"7 c #77837B",
"8 c #778478",
"9 c #7D847C",
"0 c #7F8A7E",
"q c #828778",
"w c #83807D",
"e c #82857E",
"r c #89857E",
"t c #848B7F",
"y c #787F81",
"u c #7D7F81",
"i c #827D81",
"p c #7D8280",
"a c #7E8482",
"s c #7E8B84",
"d c #808080",
"f c #848583",
"g c #858C85",
"h c #8B8D86",
"j c #868D8A",
"k c #8C8E8A",
"l c #869385",
"z c #8C9387",
"x c #87938C",
"c c #8E958C",
"v c #8F9B8E",
"b c #949687",
"n c #91908A",
"m c #93968E",
"M c #9A968E",
"N c #909A88",
"B c #949B8E",
"V c #999B8E",
"C c #8F8F97",
"Z c #8F9693",
"A c #8F9B92",
"S c #8D9B9A",
"D c #949793",
"F c #949B93",
"G c #9A9893",
"H c #999A94",
"J c #93A28D",
"K c #9BA18C",
"L c #8FA195",
"P c #94A393",
/* pixels */
"02opa0zFFAPFFFPMVFFFASJFAZ7006NAAh1,1,%-",
"a7504fkFBBFDZFFMBFvjsvvvFZa446mFFz2,,,,@",
"aq664eZDmmkjZDFBmvla7xcmFFfa90bDBbr1,,,@",
"978749jDCh<%hDFmVb6744hmDDhssrcFBBz4%*,;",
"788729xBl5%<hMBFBb58455gAFDDFcvAmmNx51@,",
"50098hcBNl%gcmBFFl4595qhFHGBZmZFDccNc51<",
"zjxhzmDBBBfZmDBFFz5005qhDFBBvDDDcghBFkhg",
"FDDDBmBBBHSjmGFmmmkzkhzzmFZmBGmDmhzBFFFV",
"BDDFFBDZANxtkGFvBFmBVBBBBhkjhjhhcmFFFFDF",
"HFczNxvAAv0qnGFcBFGcBBVBBfww49eqfZmDFDGF",
"H521*<gZAAZBDDmDDCSABBFPBe7849994fZBBFFD",
"G7##<11gmDDmBmfekDZfazABBfa0wqaaaafCPFvc",
"e,++=,,tmDGmDcqehDDjhvAFca44q9ff9ufCDFFc",
",==$@@,0zZGDc  efnDBcAFDmffw5uiee4fkDDDN",
"3,,&%*#:akFDf > 49     mbmDkuu94ue0mGDmm",
"m2%&$+*,fZADM d>  >>>>> DjcDkwq449qNZBBB",
"F9,,%;<9kFmB dO>X>>OOOO> nNcZfe9fhNvvZBB",
"B8,<;;4cFDcB .OOO>.OOOOO DBcDZhgjBFvhkcV",
"Vt5245zGFDDHF    >..OOO. DAABDFcmZcBgehm",
"VmbBFBBBFHGBBBmZF >..OOOO ZAvDSADBFBmFDm",
"JBBmmBBBDDFFBmBZF >...  O PSAcDFBBBGGFBm",
"vvmmggNBDDBlcDB  >...>.  AFxsASZmmBMBFBB",
"vAx0agDDDDF0f  >>..>>...>  ZxHgaehmmFFBB",
"Jvx79lcDDDx9 >>>>>>>>>>>...   054hnmBmmm",
"Bvh94tzDDZ955  >>>..........>> 58gmAcbmD",
"Fmh238zDDm755gB   >>>>>>>>>>  845tBz0jDD",
"PFhwkNmZmcjAmbmZBB          vq52tmNg5egA",
"PFchDFBBBBDFDmGABmjayua9fBBvZgttjFcr55gc",
"LDMDFFKKBBmcABHccz9a4449fvLADZvmmFce49gD",
"DFFBFAvvlgVVVFDmjaa444kmZBBBFvAFZBN855eD",
"AZAAFFBFl0BcDFGDga9afjcmBvBBN78tBAccmNxZ",
"FAAFFFFvNzmmmFDBchjjknDZFvvNe116lNFFmDFm",
"VBBNFFFBmBDBFFDmMVFZZmFFD0g7,1,,8lmvMDBV",
"FBBvgghffhgFBBDmmmBFFmAAc1%,;<*%*9vFGmBB",
"FDch3,,,<<1mmmDcBmBBBBmDv:;@+,@*,aAFDmmk",
"BBh1,<%%%%;ZmmBFFBmmGDmBZ,-;;,*,aZANgZx9",
"exg;***$%%jABvBHFcqebmmmDx8***,fASx05fr5",
"0gjh1%&%$3mZABBtge55axBBBDbkgghmBBczf955",
"70jx09w4wwcDmDFq74288zvBbMGGmvFGFBccau45",
"997sFFDSDbNZDmD04944fnbmMMDmmABAAAx9uu43"
};
