/* XPM */
static char *bat_on_green_right1670961400[] = {
/* columns rows colors chars-per-pixel */
"40 40 75 1 ",
"  c #373937",
". c #3C3D3C",
"X c #3F403F",
"o c #444444",
"O c #474947",
"+ c #4C4C4C",
"@ c #4F514F",
"# c #545454",
"$ c #575857",
"% c #585758",
"& c #5C5C5C",
"* c #5E605E",
"= c #646464",
"- c #676967",
"; c #686768",
": c #6B6C6B",
"> c #726F6A",
", c #6E726E",
"< c #6A7A6C",
"1 c #73736D",
"2 c #7C736E",
"3 c #71796E",
"4 c #6C6F72",
"5 c #716D72",
"6 c #6E7273",
"7 c #6E7A74",
"8 c #737572",
"9 c #797574",
"0 c #747973",
"q c #7B7D76",
"w c #747B7B",
"e c #7C7E7C",
"r c #827F7C",
"t c #768477",
"y c #7B8276",
"u c #7D8876",
"i c #76827B",
"p c #7C837B",
"a c #7E897C",
"s c #808577",
"d c #81847D",
"f c #88847D",
"g c #838A7D",
"h c #7B7E80",
"j c #807A80",
"k c #7D8381",
"l c #7D8A83",
"z c #828482",
"x c #858B84",
"c c #898C85",
"v c #858D89",
"b c #8B8D8A",
"n c #908F89",
"m c #849284",
"M c #8B9286",
"N c #8F9987",
"B c #86928B",
"V c #8D948B",
"C c #8E998D",
"Z c #929586",
"A c #92968D",
"S c #99958D",
"D c #939A8E",
"F c #989A8D",
"G c #8E8E96",
"H c #8E9692",
"J c #8E9A91",
"K c #939692",
"L c #999791",
"P c #939A92",
"I c #989991",
"U c #92A18C",
"Y c #9AA08B",
"T c #8FA096",
"R c #93A292",
/* pixels */
"atekklMIJJRIPPPFFPPPJJRDJHiupuCJJx080814",
"kppuepVPPPIKHJPAPPCvlVJCPHkepuAPPcq8898,",
"kpuuezbKKAbzHPPDACmliBMAPPzkkuADDNs0188,",
"eytiqpvKnb91zIIDFZyppebAKKvxlfVPDFZp8306",
"tuppiuBDMy39cDDDDNpyqpyxPPKKIVCJAAVVp368",
"iiippxVKCg3xZADPDcppepycKPLKHVKPKbZCMy08",
"MBMvMAAPDCo.   oDBpuiuscKPDCCKKKVxxCIMcx",
"DKKKDD8oo+-;;::;OOO&MccNDPPVDIAKKMMIPPPD",
"FKKPD:=*&*#%#%##****=-DDDcbxcBcxMKIIPPII",
"PPAB-*$###++++++#$$$**=eDzreepsdxVHKIKLP",
"Ii00j%oo+++++++++#&=,1&&nzpyppppezHPCJPK",
"Lu<,0@ooO++++++@@&5,:,6-@zkkrdkkkkzGRPCV",
"d0:>880g.++@@#:5:=+@@#*,;$despzzphzGPIDV",
"854>:,8peo+&==%%%#+++=&&,+jreezsdezbVKKD",
"089213<7ko=&&%+++++@*&@#:+KbjeeehdpZIKAA",
"Aq121>38zK#X.oO++++*&++#-+VHbprpepgNJKDP",
"Dy88160pbK&##@O++@%=@++#;+CVAvppzbMCVPID",
"Fi6988eVIKVDAAoOO&;@+++#;+CAKVxxcJJCcbMD",
"FgyqeecDIKKKLIAo+&:@+++#;+KJKKPAVKJDxdcA",
"DDAADDFDPPLPDDAo%&&++++@:+HJCHHPPAIADPPA",
"UDDAADDDKKPRDADH&+X++++@:+PJJVPPDFDLPPIA",
"CDAAxxCDKKPgMKDH9&&Oo++#:@TBlJHHAADADPCD",
"CVBakmKPKKPpzbxVnKKo.O+#-+JJBPvkdcAADIDD",
"UCBipxVKKPBprspVKKKbj#o+#*&PJBppb#&ADAAV",
"UJxewgMDIHpqyuuCJVKbxr&o+&#qbKpy:oXCMAAI",
"KAcreiMKKVipuzDFFDVuee:+$@&#+Ob--&XMuBKK",
"RPcdMVAHVKVHAZAJDDbke#*::$$-:=+*8-@xidcC",
"RPMcKDDDDAVPKALHCAvh%=;;--66,=&;:;9+pygH",
"TISKPPUYDCAVVPPHVMpk#&=;;=;;===-;&@.epzK",
"HPPDPPDCmxFFIDKAvkke##*;===*%%@++OoxpqxH",
"CHJJKPDPMaDVIIKIvppk##*;==*+oo%&=;:VZVVH",
"PJJJPPPDNMDVCPKIMcb+&%%%%Oo%==8pmCPDDDJA",
"IDDCPPPAFAIDJPKASFP+&oooooopq988imAJSKDD",
"PDDCxzcxzcxKDAKAADPD&DJPC78::0<18uCPKADF",
"PANcw993008KAAKVVDDAIDHAV76:,8618lCPKAAc",
"IDc8801,116KAADPPDAAKKADHw48,010kHJMxHVp",
"aBv6138110BJDDDIIVugZAADKVy0<88dJJMapzsr",
"ixvx311959MKJCPgxdyypMCFAAMccxbAIPABkppy",
"aacVppreerMKAKIupeqppMDDASSIDTALPJVMzkwy",
"iiplRPKHKACHKAPpwieezMZASSIAMPPCJJBpehee"
};
