/* XPM */
static char *bat_on_brown_left_21670961400[] = {
/* columns rows colors chars-per-pixel */
"40 40 140 2 ",
"   c #3A3531",
".  c #3B3A35",
"X  c #3D3C3C",
"o  c #433A2B",
"O  c #4C3D2E",
"+  c #503F2F",
"@  c #403B37",
"#  c #4D3E32",
"$  c #513F31",
"%  c #49412E",
"&  c #4D4233",
"*  c #44423C",
"=  c #4B443B",
"-  c #4C483F",
";  c #534335",
":  c #5B4636",
">  c #5A4935",
",  c #55473B",
"<  c #594739",
"1  c #564A3C",
"2  c #5C4B3B",
"3  c #644C37",
"4  c #624D3C",
"5  c #65513D",
"6  c #6A533D",
"7  c #3E3F41",
"8  c #444444",
"9  c #4A4742",
"0  c #464845",
"q  c #4B4A45",
"w  c #464749",
"e  c #454A4B",
"r  c #4C4C4C",
"t  c #534B43",
"y  c #5C4D42",
"u  c #524D49",
"i  c #565047",
"p  c #5E5143",
"a  c #53514E",
"s  c #5A514C",
"d  c #4C4E51",
"f  c #535453",
"g  c #5A5652",
"h  c #565857",
"j  c #5B5B56",
"k  c #535658",
"l  c #595758",
"z  c #56595A",
"x  c #5C5C5B",
"c  c #624E41",
"v  c #645344",
"b  c #6A5543",
"n  c #6E5A45",
"m  c #65554A",
"M  c #6A5549",
"N  c #64594D",
"B  c #6C5A4C",
"V  c #705743",
"C  c #735C45",
"Z  c #725D4B",
"A  c #785E4D",
"S  c #605750",
"D  c #645C53",
"F  c #6C5D52",
"G  c #605E5B",
"H  c #715F52",
"J  c #5D605E",
"K  c #75624E",
"L  c #7A634E",
"P  c #6C6055",
"I  c #61615E",
"U  c #6C645B",
"Y  c #746254",
"T  c #7A6453",
"R  c #7D6A56",
"E  c #76665B",
"W  c #7A675A",
"Q  c #76695B",
"!  c #7C6B5D",
"~  c #5C5F61",
"^  c #5E6162",
"/  c #636363",
"(  c #6A6662",
")  c #666867",
"_  c #6A6A66",
"`  c #65676A",
"'  c #656A6A",
"]  c #6B6B6B",
"[  c #7B6760",
"{  c #756F65",
"}  c #7C6C62",
"|  c #716C68",
" . c #767064",
".. c #7F7166",
"X. c #72716F",
"o. c #7C736A",
"O. c #6B6E71",
"+. c #6E7272",
"@. c #727473",
"#. c #7C7976",
"$. c #707578",
"%. c #7A7A78",
"&. c #836C55",
"*. c #836D5B",
"=. c #85715B",
"-. c #8B725B",
";. c #816E62",
":. c #836F68",
">. c #847265",
",. c #897565",
"<. c #8E7967",
"1. c #85756A",
"2. c #89766B",
"3. c #867A6E",
"4. c #8C7A6D",
"5. c #917A66",
"6. c #927C6C",
"7. c #867B72",
"8. c #8D7D72",
"9. c #847F7B",
"0. c #897F7A",
"q. c #917E72",
"w. c #987F78",
"e. c #95806D",
"r. c #98826C",
"t. c #8D8075",
"y. c #86827C",
"u. c #8C827B",
"i. c #8F887E",
"p. c #938174",
"a. c #998271",
"s. c #95847A",
"d. c #9B867A",
"f. c #9C887B",
"g. c #8F8681",
"h. c #948F89",
"j. c #92918D",
"k. c #9B978C",
"l. c #919596",
"z. c #A9958A",
/* pixels */
";.} p.p.p.8.8.8.! B 4 2 4 2 5 B 1.q.p.q.s.s.6.6.1.1.B b 2 n c v 3 6 5 2 m ! 1.1.",
"6.4.p.4.4.p.8.2.! m , ; ; % 2 B 4.8.q.p.2.q.q.8.1.q.! Y B 2 c ; 2 ; ; , F } 2.p.",
"q.p.4...} q.8.1.>.Y m m v v K >.2.2.4.2.4.7.t.8.8.4.3.>.E F W F U U U F } 8.1.p.",
"e.4.=.Y M 1.4.7.2.>.! ! ! ! >.t.4.4.2.W 1.,.4.2.4.4.p.8.1.8.1.3.1.4.8.3.8.p.4.t.",
"e.! B c 4 ! 1.4.p.p.t.4.4.p.e.4.r.<.R b v R e.p.6.f.4.3.q.p.4.d.e.<.<.,.<.p.8.t.",
"t.Y 2 y B :.2.4.2.t.t.,.,.>.! K 5 5 5 b + E t.4.8.t.8.t.0.:.z.w.r.*.K W ! 2.0.8.",
"t.E Y W 1.4.1.>.>.2.p.t.,.R K 6 5 5 , 1 , Q 7.i.q   . . . t s.3.B Y 1 4 W >.q.w.",
"8.>.2.8.q.:.T Z Y ! e.e.=.K 6 3 1 v 1 & D q * q ` ` +.' ' ) q - 9  .s 2 ! 4.q.6.",
"p.4.t.d.t.! B v B Y 7.q.T 4 2 2 t q ( ] x I I x x f x l f f / x J I ( t } q.6.q.",
"2.>.>.4.4.2.>.>.>.q.4.W b > ; o u.U I x k h h f r r w w u w l f k k I ( ..8.q.s.",
"n K Y =.4.4.>.2.p.p.s.;.*.B D k.g j ] @.) J f r r r d r d w r r w 8 l 0.0.d.q.2.",
"6 K K K K B B >.>.1.2.4.>.u.o.q _ +.@.O.+.] ~ u r u f r w e f w 9 @ s 0.8.q.q.4.",
"n K V b b 4 v F >.! [ 1.3.s.g ] +./ d r f l G ] X.X.d w f d r @ 0.t.t.s.4.;.*.*.",
"5 5 2 2 2 1 < v ! Y m 1.4.0.f ] x J x h r 7 d x f ~ ] / ~ r @ 9.4.e.q.1.<.*.L A ",
"2 5 2 ; O # v E D B N W 4.s.8 +.r h x x g r r w r 7 l ~ G G q u.p.s.f.4.8.1.} >.",
"2 & ; y B } >.2.1.} >.8.4.t.u ` f u q G G r u r w f 7 7 X g g.8.4.2.p.Q 2 p F w.",
">.;.:.3.<.4.t.e.t.8.>.>.e.t.u ' f r r d ] f f r e w s u f j p.q.8.:.H y ; m } s.",
"4.4.8.w.p.t.t.s.4.4.! ,.4.2.q O.f r f r r ] f r 9 = } 1.{  .q.q.4.E m s D [ 2.q.",
"q.s.8.3.t.p.6.4.>.<.,.,.=.Y - ] f 8 w a q X.G r - 7.<.b 2 v 8.2.2.[ H [ :.7.q.s.",
">.1.1.2.8.q.2.>.5.5.&.C 5 v - +.f f r r r x / f & ! V 3 4 : ;.q.2.2.7.q.w.8.p.q.",
"*.L &.,.,.,.,.,.-.T b 6 5 m i ' d d r r r 7 r l 0.H 4 3 : c :.8.6.q.q.8.p.p.4.>.",
"=.L A *.>.,.;.Y Z 4 4 c 5 1 q ) k d r w r x x #.8.;.B v B [ s.7.q.p.8.8.8.p.4.=.",
"C K H ! 8.o.P N 5 2 ; ; ; = a ' r u 8 @ @ 0.0.8.1.p.Y W :.;.q.6.4.q.p.8.4.p.,.=.",
"C n M ! 7.P f g.; ; ; ; 1 D j k u 8 u 0.0.p.4.6.r.6.q.8.8.w.6.5.6.1.1.8.p.e.;.A ",
"B b b m u.. e I m t j.l.$.d ^ r * D o.E 4.>.8.3.q.p.p.q.<.5.r.-.&.&.R t.s.6.*.b ",
"6 V 5 B 7.* J _ U h.* r k ^ f f r _ i # W 4.>.8.p.4.4.4.p.r.-.6 6 5 B 2.s.<.A b ",
"6 C 6 b y.q J %./ w ( ] x x z @.] I g t ;.4.q.3.8.8.s.2.>.&.6 6 5 5 K 4.p.>.b b ",
"C 5 > v - @.@.] O.k / _ %.X.x ` ] / _ S d.2.w.:.1.4.p.,.! R 6 6 v v ! t.p.*.b 6 ",
"b 2 b D . k ^ ^ ~ ] ` ] G / ] x / ` x i 0.q.1.[ E 3.t.t.>.B 5 v p m >.4.8.>.n 6 ",
"N 2 y S y.0 w d r 9 x f / ] ] ) ] ~ f a 0.2.W H F >.<.p.>.B B m Z W t.t.8.! B 2 ",
"1 m E 8.t.( | I D G * 7 r / I I / J f f g.1.B Y F F E 2.p.q.4.1.4.t.s.p.p.*.K 2 ",
"Y >.<.p.0.u.7.3.1.7.( / z 8 r x l l f I t 3.>.B s y E 2.8.p.0.p.p.p.8.8.p.>.! N ",
"..4.4.p.6.1.4.<.<.,.Z m p = * * @ q @ / u 7.} m t y } 8.q.s.s.d.w.p.p.p.8.8.2.! ",
"t.4.>...,.q.q.2.=.R v 4 v y i i s y s D 8.7.Q v , N 2.q.q.d.d.a.p.q.q.q.8.p.t.2.",
"W B b 1 B 1.4.>.R n 5 2 4 c 4 c 4 4 v H p.t.>.,.>.>.! <.p.a.6.! ;.:.1.4.4.4.4.6.",
"Z b 5 2 b >.4.1.K v v 5 3 4 4 3 3 4 4 v B } <.2.=.e.a.e.*.b b C Z T >.2.2.2.2.p.",
"3 4 4 4 2 B ,.1.T b 5 2 < v 2 2 > & & ; M ;.w.2.6.r.R b 5 4 n 5 b Z E R 1.;.*.1.",
": 2 2 v < v 1.4.;.B < O # ; % % & = ; 2 :.1.1.4.6.-.C b 5 6 6 3 v v B Y >.;.Y H ",
"b > 2 ; $ c :.1.,.H y 1 1 1 1 1 ; 1 v W 2.8.7.s.6.A 4 4 4 4 6 6 5 b b Z >.,.! Y ",
"p o O # $ E 4.p.8.w.} 1.2.:.1.2.8.>.6.s.4.2.8.>.C < c c 4 v 5 3 3 b 4 2 Y *.;.>."
};
