/* XPM */
static char *bat_on_green_left1670961400[] = {
/* columns rows colors chars-per-pixel */
"40 40 77 1 ",
"  c #373937",
". c #3B3D3B",
"X c #3F403F",
"o c #434443",
"O c #474947",
"+ c #4C4C4C",
"@ c #4F514F",
"# c #545454",
"$ c #575957",
"% c #585758",
"& c #5C5C5C",
"* c #5E605E",
"= c #646464",
"- c #676967",
"; c #686768",
": c #6B6C6B",
"> c #726F6A",
", c #6E726E",
"< c #6A7A6C",
"1 c #73736D",
"2 c #7C736E",
"3 c #71796E",
"4 c #6C6F72",
"5 c #716D72",
"6 c #6E7273",
"7 c #6E7A74",
"8 c #737572",
"9 c #797574",
"0 c #747A73",
"q c #7B7D75",
"w c #747B7B",
"e c #7C7E7B",
"r c #817F7C",
"t c #768377",
"y c #7B8276",
"u c #7D8876",
"i c #76827A",
"p c #7C837B",
"a c #7E897D",
"s c #818677",
"d c #82857D",
"f c #88847D",
"g c #848A7E",
"h c #777E80",
"j c #7B7E80",
"k c #817D81",
"l c #7E8381",
"z c #7D8A83",
"x c #838482",
"c c #848B83",
"v c #8A8C85",
"b c #858C89",
"n c #8B8D89",
"m c #918F84",
"M c #908F89",
"N c #859283",
"B c #8B9286",
"V c #8F9987",
"C c #86928B",
"Z c #8D948B",
"A c #8E9A8D",
"S c #929586",
"D c #92958D",
"F c #99958D",
"G c #939A8D",
"H c #989B8D",
"J c #8E8E96",
"K c #8E9592",
"L c #8E9A91",
"P c #939692",
"I c #999792",
"U c #939A92",
"Y c #989992",
"T c #9B9C9B",
"R c #92A18C",
"E c #8EA094",
"W c #93A292",
/* pixels */
"atellaZUUUWUUUUHHHUULLWGLKuippAALv080884",
"lpupelnUGGUPKUUHYKACzAKAULlepaGGUBq8881,",
"lpuuelZPDDnbKUUGGANlibZDUUxllsSUHBd0891,",
"eytiqpnPJv91xYUDGSyipevDPPbczdZUHGSp3876",
"ipuiwpBGcy18vFGUHBtyqpycLGPYUZAASDZCp368",
"iupppNZUVN8cZDGUGZppepuvPKYUPDKUPZSAZy08",
"CCbnBDDUGAcJYDGUDZppuppvo  ..XYPZdvZUnvc",
"UDPPGGDGUUUbDYUDGDvB&oOO--:---+oO8ZGHUYG",
"GYPKGGDUKRCpnIUAGG===*=*$$$#$%&***:UUUPU",
"YGZZZZKLLVagnPUZe==*####+++O++###&&:YDYU",
"Pp0038bKKLZGYIDD&*8:=&#+++++++++oO#kGKUY",
"Iu<<93tcGPPDGZx@-,,:,5&++@+++++OOo+JUWGZ",
"d8:,188gDPIPDZ#:,=++++=55:%@+++XpexJPUUA",
"855>,,8pZKIPZv+:&&=@++#%%%==*+oedexZZPYZ",
"988213<7pnUPcpO:##&=++O+++%&&=oeepgBYIDS",
"Pq12>>33lPKUFm+:#O+&=@+++OX.X#deeegAKPGU",
"Dp89168lnPZGGS+-#++@;%+++O@##%ppxnZAZPDH",
"Gu6968enUUZDGG+-@++++:&+OoAGMKnccUAAnnZH",
"HgyqepZGUYYYYU+:#++++>&OOIPADUGPDKAGgcvD",
"GGSGGGGGUPIYGG+:@++++*&%oJKKLKLKUDUFGUZG",
"RGGSDGHGPPUUGS+:#++++X+&ALELKZUUGGGUYUUD",
"AAPDccVUPPRgZP+:@++oo&*5KKTCzAKLDDHFGUGG",
"AACzlcPPPPUlxv+-#+O okfvGHUKCUbzxvDDGUGA",
"RAbpp&#bUPCpp&*#+o+JkkrvFGULLnpppxMDGFDD",
"RKnpwXo:YKPK9#&+o&YZfrenYPIIUyyuycZKZSDU",
"YAvqe.*-=no+#*@&+:BpppevHUZUKtpqugGBanPP",
"WGndn@-8*+=:-$&::&#lhjddcHGDZuyqgZZcupcZ",
"EGnv+0:--&=86:==;:-#jjlplGGAKcggnGZgypgP",
"EUFUX@&-;====;=;==&#ejppxVEEUKAGDUZgeqcP",
"PUUUxoO+++%%*;====##eenDKGGUUKUAKGBpppxP",
"KKLLP::=&&oo+*==;*##dnKDGAGGBitgAAZZSZCK",
"WKKUUYDABv==%OO%%%%&+nPKUAGBg00uBAGUGGUD",
"HGGAUUUGGGUGToXoooo&+DUUUacp9908pCAADYDG",
"UGGAcbvxxvcPUDDDDGU&YDLUZ066:0<31pAGIDGG",
"UDZv098198wSDSYZUDGDDAZZZ76,,8,,8zAUPDDn",
"GGv0888,116PDZYUUUSDIYDUZw4,6838lKAZcKZp",
"dCb6338110nLURUHUZsgZPDGPCq3368gKLVaplfy",
"abbb3319>9ZPKADNcpyypBGGDUSnvNMDUUZBlppy",
"ipbnpdeeejBPPGYpeeqppBGGFFFYGAYYUKDZleey",
"upuzUUPPYSAKDDPpipeednSDFFGDZAKAGLCpjjwe"
};
