/* XPM */
static char *black_wall401670961400[] = {
/* columns rows colors chars-per-pixel */
"40 40 59 1 ",
"  c black",
". c #040303",
"X c #040404",
"o c #060606",
"O c #070707",
"+ c #080707",
"@ c #0B0A0A",
"# c gray5",
"$ c #0E0E0E",
"% c #111010",
"& c #121111",
"* c #131212",
"= c #161515",
"- c gray9",
"; c #181717",
": c #191818",
"> c #1E1D1D",
", c #252222",
"< c #282525",
"1 c #282828",
"2 c #2B2A2A",
"3 c #2C2A2A",
"4 c #2F2E2E",
"5 c #312F2F",
"6 c #313030",
"7 c #343131",
"8 c #363434",
"9 c #383535",
"0 c #3D3A3A",
"q c #3F3B3B",
"w c #403E3E",
"e c #403F3F",
"r c #423F3F",
"t c #434242",
"y c #444242",
"u c #454343",
"i c #484444",
"p c #484646",
"a c #494747",
"s c #4C4A4A",
"d c #4F4C4C",
"f c #514C4C",
"g c #534F4F",
"h c #535050",
"j c #565252",
"k c #575353",
"l c #5A5656",
"z c #5B5656",
"x c #5E5959",
"c c #5F5A5A",
"v c #605B5B",
"b c #605C5C",
"n c #615C5C",
"m c #645F5F",
"M c #656060",
"N c #666060",
"B c #6A6464",
"V c #6B6464",
"C c #6B6565",
/* pixels */
"wpBBBBBBBBBB< >wwwpBBBBBBBBBBBB9 ,BBBBBB",
"wpBBNNBBBBBB< >yyysBBBBNNBBBBBB9 ,BBBNBB",
"wpBNwwBBBBBB< 5BBBBBBBBwwNBBBBB9 ,BcquBB",
"wpBNwwBBBBBB< 5BBBBBBBBwwNBBBBB9 ,CnquBB",
"wpBBBBBBBBBB< 5BBBBBBBBBBBBBBBB9 ,BcwyBB",
"wpBBBBBBBBBB< 5BBBBBBBBBBBBBBBB9 ,BnwyBB",
"oo@@@@@@@@@@. o@@@@@@@@@@@@@@@@o o@@oo@@",
"                                        ",
"ffffff  pf95yfffy69ffff  36pfffffffu67ff",
"BBBBBB  cBpwlBCBlwpBBBB  9wnBBBBBBBvwyBB",
"fkCCBB  cBpylCCBmzcBBCB  flmBBBcflBnwyCC",
"qpBBBB  cBpwlBBBBBBBBBB  cBBBBBktfCnwyBB",
"klBBBB  cBlkvBBBBBBBBBB  cBlkkkkklBnkkBB",
"BBBBBB  cBBBBBBBBBBBBBB  cBpwwwsBBBBBBBB",
"tyyyyy  0yyyyyyyyyyyyyy  qy5<337yyyyttyy",
"                                        ",
"====@$$#@$##o +#%====####$#. +#=========",
"BCBNwwwwwwww= >wfBBBBwwwwww$ 1tfBBBBBBBB",
"NNBNyywwyyyy: >wsBBBmwwyryy# 1tfNNBBNNBB",
"wpBBBCwwNCBB< >wfBBBmwwBVVV; tBkqfBneuBB",
"wpBBBBwwNBBB< >wfBBBNwwBBBB; wCkwdBnwyBB",
"BCBBBBBBBBBB< 5BBBBBBBBBBBB; wBBBBBBBBBB",
"BCBBBBBBBBBB< 5BBBBBBBBBBBB; wBBBBBBBBBB",
"@@@@@@@@@@@@. o@@@@@@@@@@@@. +@@@@@@@@@@",
"                                        ",
"6657ff  if95yfffffw o5555sfffffff7 %ffff",
"wywyBB  zVpwzBBBBBf owwwwNCBBBBBBy =BBBB",
"wyllBB  vBpwzBBBnfq ollwwmBBBlfcBy =BBfd",
"wpBBBB  vBpwlBBBlq7 +VVwwmBBBswgBw =Vmww",
"wpBCBB  lBkkvBBBckt @VVkkBBBBckvBy ;Bmkk",
"wpBBBB  vBVBBBBBBBf +VBVBBBBBBBBBy ;BBBB",
"<5yyyy  qyytyytuuu7 +ywyywwyyyyty3 #yyyy",
"                                        ",
"##$###;=====@ @=*%%##======o %=%#$$$###$",
"qtwwwwBBBBBB< 5BlqequBBBBBB= wBkqqwwwwww",
"ttyyqwBBBBBB< 5BluuqyBBBBBB: qBktyyyyyyy",
"BBVmywBBBBBB< 5BBBntyBBBBBB: wBkqsBBBBBB",
"BBCmqyBBBBBB< 5BBBnqyBBBBBB= tBkwfBBBBBB",
"BBBBBBBBBBBB< 5BBBBBBBBBBBB: tBBBBBBBBBB",
"BBBBBBBBBBBB< 5BBBBBBBBBBBB- wBBBBBBBBBB"
};
