/* XPM */
static char *brown_ground40_21670961401[] = {
/* columns rows colors chars-per-pixel */
"40 40 69 1 ",
"  c #4A3B2D",
". c #4D3F31",
"X c #4E4033",
"o c #534335",
"O c #584736",
"+ c #594837",
"@ c #544639",
"# c #594738",
"$ c #57493B",
"% c #5C4B3B",
"& c #614E3D",
"* c #65513E",
"= c #69533F",
"- c #554A41",
"; c #5D4E41",
": c #5F5146",
"> c #5F534A",
", c #624F42",
"< c #645243",
"1 c #6A5543",
"2 c #6E5945",
"3 c #65564A",
"4 c #69574A",
"5 c #67584A",
"6 c #6C5A4B",
"7 c #705A45",
"8 c #725D4B",
"9 c #655A51",
"0 c #6D5D51",
"q c #715D51",
"w c #76614E",
"e c #79624E",
"r c #6E6054",
"t c #6F6158",
"y c #746254",
"u c #796553",
"i c #7D6B57",
"p c #75655A",
"a c #79675A",
"s c #76695B",
"d c #7C6A5C",
"f c #7E6D61",
"g c #7F7062",
"h c #826B56",
"j c #816D5C",
"k c #886F5B",
"l c #85715D",
"z c #8A725D",
"x c #816E62",
"c c #847265",
"v c #8A7564",
"b c #8E7866",
"n c #867469",
"m c #89766B",
"M c #87786C",
"N c #8C7A6D",
"B c #927A66",
"V c #917D6C",
"C c #997F6C",
"Z c #8E7D71",
"A c #907F72",
"S c #92806F",
"D c #918074",
"F c #998574",
"G c #978579",
"H c #9A867B",
"J c #9C8B7B",
"K c #A18C7A",
"L c #A19083",
/* pixels */
"dnNDAZZZx4&%&%+0MDDDDDDAnc6&=*****<$6aMn",
"NAAAADZMd5Oooo%rMNZNNADNnZfy4,$%$$@@0xZZ",
"ADbcdNZMfp33<3ycNNbNMZZNNZNgppr0rrrrfMZA",
"AVly4nMMMcfddjcNNbclfMZZNAZZNMZZNMNNZZZA",
"Dj6%&dMZADDZNbbVVbh<4fNDZAZDZZZZNNNNZZZD",
"D6<,3cNNNVDnczbe1*&*XaMDZDZNZZLFBkwwfZZD",
"ZppdnmcxcNDSbh7=&&%%odNDDDAAGLKkw1**snZZ",
"AnnNAnp0rxVSlw**&%%O:gNDDDDHJKzq1*&%dMAZ",
"AAAAAx635sZbu*%%%$$otgZDDDDGJS==&&%%dNDD",
"MMmmAnffcZNp<% X Xo<MZDDDDDMdw&%%Oo;cZAA",
"26qkVcMZAADMd066wpgMSDDDDDDZc=XXX$ymZDAA",
"2eeey8qfmMnNNNMMMNNSMMSSDDDZMdpdfnZZDDVB",
"27711&<0xffnZZDDDDZviagMDDDZNNMNNAAZAvjj",
"1<&%%o$4dq0gNDDDDDZd1<8gDDDDDDDNZZDNmxqy",
"&%%O o<0p33dMDDDDDNy%o%pDDDDDDDZAGHSBcxn",
"#oo-0dnmnffMZDDDDDZl$$rcDDDDDDZDZNDy$,qZ",
"cxxnmZAAZNcMNAcnNZZNfxnVMcvbDZDDNx0;@3nA",
"ZZAAAAAADMlvbcuucMAZZZNmcbvkigDNmf>>9fmA",
"ZZZAAAAANczzly1<dcVDDAZnkBk8,4ZMnx9pnZZA",
"mMnmZANncVl7*<=O8cZDDANbzl1&%.mNNMADAAAA",
"jhdxnmcvze*===&oqnADDANNV8&&%&cZZZAZDZNn",
"huudnchuw*%*&#.&dMAAAAZZAj4<6yZAZZZZADbc",
"e88jNn81%%OOoO%pnNAADAZZAMddxcAVAANZDDvh",
"277aZN6%OOoX@;ynZNmNAZZZAANAAAVmbBnZGAvu",
"21<6ZAf0;;,6uxZAZMffmmNZAAZZAbCzkhuAHZh1",
"=114NAZMcmmMZAADmp,.amMmAZZVVCk7=12nDvu=",
"71*4mAmxaMHAMnZDmf:-mZNMNZAVzh==1<6ZFc11",
"1=&3xMjq0nAdyynDZfqpZZNncZZmlw==<<pZGj1=",
"1,;3xmq00nN0<8MZZZMADZnfpMZZc21<34xAAj2&",
"1%;6AmnnbSGVDDHZZAAADnp09nZZc8336aAAAx6,",
";4dMZAZnvnVVbvbidxMAAnp609fMZZNZAAGANx0#",
"qxNZAZNnnbzu888144pMAMfq>-sMAAAAAAAAAMf4",
"nNAZZZNbbv81<1<&<<4dDNa3$-fZDGGGAFAAANmf",
"ZncncNZmvh*&&%&%%&*yDNp3-3MZAHHFAAAAAAZA",
"x2<&1vVmi2%%&&&&*%*yZZMnxccVCCBkjcmMNNVm",
"1*&&,xAny=*&&%&&%&%39gNNvbCBh7418axnMnNF",
",&&&&6Mni4%%%&%%+oXX0cnmCCh71,==18ajxxdx",
"&%&%@<xmj5OoooooXXX&fnNVCz21&&=*117ucxiu",
"%%OO.;xmny%$@@@@$%<dNNAAb7,&==****=8xxdq",
";o  oaZAAZnccncnnMNDZZNc6,&&&&**&*&&uxxc"
};
