/* XPM */
static char *collectable_on_green1670961401[] = {
/* columns rows colors chars-per-pixel */
"40 40 73 1 ",
"  c #0D3E31",
". c #303032",
"X c #4A3B2D",
"o c #4D3F31",
"O c #225E34",
"+ c #4E4033",
"@ c #534335",
"# c #584736",
"$ c #544639",
"% c #594738",
"& c #57493B",
"* c #5C4B3B",
"= c #614E3D",
"- c #65513E",
"; c #69533F",
": c #554A42",
"> c #5D4E41",
", c #5F5146",
"< c #5F534A",
"1 c #645243",
"2 c #6A5543",
"3 c #6E5945",
"4 c #65564A",
"5 c #69574A",
"6 c #67584A",
"7 c #6C5A4B",
"8 c #705A45",
"9 c #725D4B",
"0 c #655A51",
"q c #6C5C51",
"w c #715E51",
"e c #76614E",
"r c #79624E",
"t c #6E6054",
"y c #736254",
"u c #796553",
"i c #7D6B57",
"p c #746459",
"a c #79675B",
"s c #76695B",
"d c #7C6A5C",
"f c #7E6D61",
"g c #7F7062",
"h c #826B56",
"j c #816D5C",
"k c #886F5B",
"l c #86715D",
"z c #8A725D",
"x c #816E62",
"c c #847265",
"v c #8A7564",
"b c #8E7866",
"n c #86746A",
"m c #89766B",
"M c #87786C",
"N c #8C7A6D",
"B c #927B66",
"V c #917D6C",
"C c #997F6C",
"Z c #8E7D71",
"A c #907F72",
"S c #3A8030",
"D c #67AD2E",
"F c #92806F",
"G c #9B816C",
"H c #928074",
"J c #998574",
"K c #978579",
"L c #9A867B",
"P c #9C8B7B",
"I c #A18C7A",
"U c #9F8D81",
"Y c #A19083",
/* pixels */
"dnNHANHZx5=*=*%qMHHHHHHHcc71-;----1&4aMn",
"NAAAAHZMd6#@@@*tbZNZZHZNNZfw5>&%&&*$qxZZ",
"AHbcfNZnfp4414ycNNbMNNHNNZNcppytttttfMZA",
"AVly4nMMmcfddjcNNNvdfMNZMZZZMMZZMNNNZZZA",
"Hj7*=dnZAAAAmVVCFbh-6fMHZHHZZZZZNNNNZZZH",
"H7114cNZVHHnvzz92--;+aNHZZZZZZYJBzu9gNZH",
"ZppdnmccxmHVvh8;==*%$aNHHHHHHYIke21-snZZ",
"ZnnNAnp7yxAAz9=-=**@,gNHHHHLIIzw2-**abAZ",
"AZAAAx746dZbh===%*$@tMZHHHHKPF;;==*%fNHH",
"mmmZAnfgcNNp5oXooo@4nZHHHHHMg9==*#@>cAAA",
"37whVcnZAAHMjw8O..lMF...HHZZc;++@&qmZHAA",
"3urry9wfMMnNmC.DDD.N.DDS.HHZndpsfnZZHAVB",
"38821=,wxfdnZ.SSSSO.DSSSS.HZZNMNZZAZNvhh",
"2-==%@&7awqg.DSOSSS.SSSOSS.HHHHNAAAZnxuy",
"=**#+@1qp54f.DSSOSS.SSOSSS.HHHHZAALFVnfn",
"&@@:7dnmnffM.OSSSOS SOSSDS.HHHZHZAVy&>pZ",
"cfxnmAAAZNccV.S.. O OOSDS.vVHZHHZxq>$4cZ",
"ZAAAAAAAZnlbbb.DDS   OSS.vvhicZNmf<<0fZA",
"AZAAAAAANclvh.DSSSO   ..O.k9,4ZNmf0pnZZA",
"mMnnZAmncGk9.DSSSOO  OOOSS.*%omNmmHHZAAA",
"jhdjnmcvzr=;.DSSOSS OOOSSD.=*=nNZZZZHANn",
"huudnchue1==XOSOSSD.OSSOSS.13yZHAZZZZFNc",
"99wjNnw2*####.SSSDS.SSSSS.daxcHNZZZZHHvh",
"889uZN7*##@@#;OOSS. .SDD.AZAAVHbNbbZKVvr",
"8225NAfq>>>9uxZ... O ...AZZZAbCkkhuZKZh5",
"2217ZAZmnnmmZAZHJ.SO.nmmHNAAVCz;;23mHve2",
"2;25NZbxamJAbnZHV.O.nAZmNZHbzh;;-1qZLv22",
"2;=5xmdyqnAxtpnH.SO.NANncZZNzr;;-4pZHl2-",
"21>1xnwqtnM72qN.DS.HZZnfsMZZc62117xHAx22",
"2:>7ZNnnbFHHFHKN..HHHMsq0nZZce547aZHAf3>",
"*5aZZZZnnnFbbvbiicbHHcp7q0fnZZNNZHHHNxq%",
"wcZZAZmmbblue9q223pnZNfw<:sMHZHHHAHHAmf5",
"nZZZZZNNbb95-21==16aHNs4$:fZAJALAAAAAZnx",
"ZnnccmZvvh-*=*=*==1uHNf1:4MZALUACAAAAAZZ",
"x3==2vAvi3*==*==-*1eZZMncxcVCCBjxmZNNNZv",
"21==1xAnw;-=====*=*40gNNvbCBh732wwxmmmmJ",
"=====7nnd2******$@++qcbNVCh92=;;29hjxxdx",
"*==*%1xnj7$@#@@@@+@*fnNVCz8==-;;;29wxxdu",
"**##o>xZny&$@$#$&*4sNMAAB91=------;9xxd9",
",@XX@pZAAZncnnnncMNHZZNc7====-----==uxxn"
};
