/* XPM */
static char *collectable_on_green1670961917[] = {
/* columns rows colors chars-per-pixel */
"40 40 67 1 ",
"  c #0D3E31",
". c #303032",
"X c #225E34",
"o c #6F6F69",
"O c #726F6A",
"+ c #6E736E",
"@ c #6A7A6C",
"# c #73736D",
"$ c #7C736E",
"% c #71796E",
"& c #6C6F72",
"* c #716D72",
"= c #6E7273",
"- c #6E7A74",
"; c #737572",
": c #797574",
"> c #747A73",
", c #7B7D76",
"< c #747B7B",
"1 c #7C7E7C",
"2 c #827F7C",
"3 c #3A8030",
"4 c #67AD2E",
"5 c #768377",
"6 c #7B8276",
"7 c #7D8876",
"8 c #76827A",
"9 c #7C837B",
"0 c #7E897D",
"q c #818677",
"w c #82847D",
"e c #88847D",
"r c #838A7E",
"t c #777E80",
"y c #7C7E80",
"u c #807A80",
"i c #7D8381",
"p c #7D8A83",
"a c #828582",
"s c #848B83",
"d c #8A8C85",
"f c #858C89",
"g c #8B8D89",
"h c #908F89",
"j c #859284",
"k c #8B9286",
"l c #8F9987",
"z c #86928B",
"x c #8D948B",
"c c #8E9A8D",
"v c #929586",
"b c #92958D",
"n c #99958D",
"m c #939A8D",
"M c #989A8D",
"N c #8E8E96",
"B c #8E9592",
"V c #8E9A91",
"C c #8C9A99",
"Z c #939692",
"A c #999792",
"S c #939A92",
"D c #989992",
"F c #92A18C",
"G c #9AA08B",
"H c #8EA094",
"J c #93A292",
/* pixels */
"0,1iirkSVSFADSJAMMSSVCJmVB8897cVVg>;>;;&",
"i8601igSmmSCBVSbSVcfpxcmSVi1w7bSmk,;;;#+",
"i9772iBZbbgfxSSmmcji8zxbSSii90bmMkw:#;;+",
"9658,9gBNg$#aADMMv6861dbZZdspekSFmk6;%>=",
"5868>9kSr6#;emmDMk86,99sVSZZSxccmbxx9#+;",
"80999jxScj;dbbmSSk99996dZSDDBZZSbxkmx7>>",
"xjkfkbbSmcsBZZcSSk6606qdZSmccZZZxascDkga",
"DZZBmbmmmDCfbDDmmbgkddkkMSZxmDbZbgxmSSDm",
"MZZVmmxSVczwhAZxcMbmnnnGMfgadkgsxbSZSSDD",
"SmxxbxVVVl0qhAZbmDMmMnAAm9a1199wagmZDZZS",
"A0>>#>fBBVVmnAnX..CVG...Sw669,9w1fBMFVSZ",
"A5@+;>>sbZZbnn.444.w.443.aii20iiiyaNSSVx",
"w;+o#;>rbZZZb.3333X.43333X11q9aa91aNZSMx",
";**Oo+;9kZAZ.43X333.333X3X.211uq21ixxZSx",
":;;$#+@-ixZZ.433X33.33X333.gu1w1ya9vDZbb",
"x1#$#o%>iBcZ.X333X3 3X3343.Bg92991rlVSMm",
"S6;;#=>ygSxMn.3.. X XX343.xbxaw99gxcxbbm",
"M6;;=;1kDZbMnn.443   X33.bmbZBfsgSScfgbm",
"Mr6,19kDSZAAn.4333X   ..XXnMbZmbxVxcrrdb",
"mxbbmMmmSZAA.4333XX  XXXX3.ncBCSZSSMDSBb",
"FcmbbmMmZCDF.433X33 XXX334.VVxSSmmMDSSDb",
"cmmbdrlVZZMrXX3X334.X33X33.xpcCBxMMbMScm",
"cckpifxDZSSis.33343.33333.VVzSfaedbbSSMx",
"FVf89jxZZBz99w.333. .344.mZVCk961abxxMMx",
"MVf9,0kZZV9,69q... X ...SZAZb6666sbckbbS",
"Zcd,,9kZZb890rmbM.3X.69dMSbVS5966smk7gZZ",
"Jcg2gxxSbxxBbhbSm.3.y1wadMmbx7,60xxs8wsx",
"JSxdbSmSmbxSbbMB.3X.ty99imcmBjrakmbw99rS",
"HDnZSSFGFmbbVmD.43.i1y99alHVZBcbZmxr11pZ",
"BSSmSScFjamMMAxb..91,1gZBmmmScVVxmk996aB",
"VBVVSZmSj0MxSDZDd9iyagBbScFmx56rcSbxvxxB",
"DVVVSSDcckbxcZZZxgffggbBScmkr,%8jcmmmmmb",
"MmmcSSDmmmZcSSBbnMVBZnVSS0s6:>;>6jmcnZDm",
"ScmcdasaaddSmbZbbmmSbbVSx>;=&>++=9cSbbmm",
"Dbxd><:;;:>bmbZbcbmbmmBBx-=oo:=+;pcSZZbg",
"mmd>:;####=ZbxDmSmbbAZbmx<&=+;%;iVcxsxB6",
"9xp;%+###>gVcmSMSbqrxbbmZz6%%=;rVVx06ie9",
"0pfd>###O:xZmcbjai660kmmbDkgdjdnDZxki996",
"80fx09121ukZbSZ791,6,kmmbnnDbcDDSVxxay16",
"998pSSCZSbcBZbZ98911wgvbnnMbxcVVcVz9yy<,"
};
