/* XPM */
static char *CrazyWizard_on_green_left1670961402[] = {
/* columns rows colors chars-per-pixel */
"40 40 131 2 ",
"   c #252525",
".  c #262826",
"X  c #282728",
"o  c #2B2B2B",
"O  c #30302D",
"+  c #333533",
"@  c #393733",
"#  c #3C3B37",
"$  c #3C3C3B",
"%  c #3F4140",
"&  c #424242",
"*  c #494944",
"=  c #4C4D4C",
"-  c #524B44",
";  c #4E514E",
":  c #54534F",
">  c #565856",
",  c #5B5B55",
"<  c #5F5F5A",
"1  c #6F6356",
"2  c #636563",
"3  c #66686A",
"4  c #6F6F69",
"5  c #726F6A",
"6  c #6E736D",
"7  c #6A7A6C",
"8  c #7C7060",
"9  c #73736D",
"0  c #7C736E",
"q  c #71786D",
"w  c #6C6F72",
"e  c #716D72",
"r  c #6D7272",
"t  c #6E7B73",
"y  c #737573",
"u  c #797574",
"i  c #747A73",
"p  c #7B7C75",
"a  c #777D7B",
"s  c #7C7E7C",
"d  c #9C5E4C",
"f  c #827565",
"g  c #837F72",
"h  c #827F7C",
"j  c #768377",
"k  c #7B8376",
"l  c #7D8876",
"z  c #76837A",
"x  c #7C837B",
"c  c #7E897D",
"v  c #838577",
"b  c #8F8476",
"n  c #82847D",
"m  c #89857B",
"M  c #838A7E",
"N  c #C9917E",
"B  c #7A7D80",
"V  c #807A80",
"C  c #7D8381",
"Z  c #7D8983",
"A  c #828582",
"S  c #848B83",
"D  c #898C85",
"F  c #858D89",
"G  c #8B8D89",
"H  c #918F84",
"J  c #908F89",
"K  c #849283",
"L  c #8B9286",
"P  c #8F9987",
"I  c #87928B",
"U  c #8D948B",
"Y  c #8E9A8D",
"T  c #919587",
"R  c #92958D",
"E  c #99968E",
"W  c #939A8D",
"Q  c #989B8E",
"!  c #8E8E96",
"~  c #8E9592",
"^  c #8E9A91",
"/  c #939692",
"(  c #9A9792",
")  c #939A92",
"_  c #989991",
"`  c #979C9E",
"'  c #989B9B",
"]  c #A29281",
"[  c #92A18C",
"{  c #9AA08B",
"}  c #8EA094",
"|  c #93A292",
" . c #BDAA93",
".. c #999EA0",
"X. c #A3A2A3",
"o. c #A4AAAC",
"O. c #A9AEB0",
"+. c #B3B4B5",
"@. c #B6B8BA",
"#. c #B8BABC",
"$. c #C09A84",
"%. c #D5AF99",
"&. c #CCB294",
"*. c #C2B09A",
"=. c #CEB599",
"-. c #C3B4A2",
";. c #C2B9A3",
":. c #CCB8A2",
">. c #CCBCAA",
",. c #D8B6A1",
"<. c #CEC1AB",
"1. c #D4C7AF",
"2. c #DBC8AF",
"3. c #C4C0B4",
"4. c #D9CFBC",
"5. c #E3D5BD",
"6. c #CCC7C6",
"7. c #CFC9C4",
"8. c #C7C6C8",
"9. c #C4C8C8",
"0. c #CCCACC",
"q. c #D6CFC5",
"w. c #D8CEC1",
"e. c #D0CDCB",
"r. c #D7D0C4",
"t. c #D3D4D3",
"y. c #D6D8D6",
"u. c #D9DBD9",
"i. c #E7DBC4",
"p. c #E2E4E2",
"a. c #FCFEFC",
/* pixels */
"c a x C C C U W ) ) | ) ) ) ) Q Q ) ) ) ^ ^ | W ^ ~ x k c x Y Y ^ D y y i y 5 w ",
"C k k x x C U ) W W ) / ~ ) ) W W ) u.u.u.u.u.W ) ~ C a C l Y W W L p y q u y 6 ",
"C x l l s C G / R R G F ~ / ) W W u.t.t.t.t.t.y.) ) C C x x R W W P n u y y y r ",
"x k j z s x G / ! D u 9 S ( ) R t.0.0.t.y.t.t.y.t.) D S Z m U ) W W P p 9 i q r ",
"j j k z j x I W S k 9 y D W W W t.0.0.0.t.t.t.t.t.) / ) ) U Y Y R R U U x q 9 y ",
"k x x x k D U W P K y S T R R 0.4.5.5.0.0.t.t.t.t.t.( R ) ~ / ) / U T Y U x i y ",
"I I I D L R / W W Y S ! / / R 0.s v 5.5.q -.r.e.5.0.W ) ^ / / / U S D R ) G D S ",
") ) / ) R W R W W ) ) F / ( ) 0.m ] ,.5.g 1.r.0.i.0.R W R ) R / U L L W ) ) _ W ",
") ) / ) W W W ^ Y Y L c G ( ) 0.5.%.N 2.5.5.4.0.5.8.F D D G D S U R W ) ) ) _ ) ",
") W U U R U ~ ^ ^ Y c n J / ) 0.5.$.d d 5.5.q.0.0.0.h x a c n n A ~ / / ) / / ) ",
"( x i i q y F ~ ^ ) U W / / R 0.6.w.5.5.5.7.0.0.0.0.x a v x x x s A ~ W W ) ) / ",
"_ j 7 6 y i i S / / / R W R A 0.0.>.=.=.=.7.0.0.0.0.t.C h x C C A B A ! | ) Y U ",
"n y 4 4 r y i M U / / / R T x 7.>.:.=.&.8 s X.0.t.#.0.h p x A A h s A ! / ) W U ",
"y e e 5 4 9 y x I / ( / U D 0.t.-.=.=.*.& + s e.t.o.+.u.n a n n n s C U R / ) U ",
"a y y 0 9 6 7 t x U / / S x 0.t.O.3.4.o.o.& s 0.t.o.& ' V s s s x C n T ) / E R ",
"R p 9 0 9 4 q i A ~ Y / E H   0.O.e = o.o.& B 0.t.+ + ' G x h x s s M P ^ / W ) ",
"/ x 9 u 9 r y n G W R W R T   0.= 3 ..o.o...O.8.O.+ + & 2 S n x C I L Y U / W W ",
"W k t u y y a U ) / U W 8.S o C o = e o.o.o.O.@.o.+ + + = ! D A G ) ) Y D D T W ",
"Q M k p s x L _ ) / / ( R X + + X o % ....o.o.....+ + + = / ) / / U ~ W S M D R ",
"W T R R W W W W ) ( / Q ! X + X + o X + + ..o...  + + + = ~ ^ ^ R ) W W ) ) / R ",
"[ Y W W R W W W / / ) | R   + X + $ % + o.o.o.o.o.  + + + + ) ) W W W _ _ ) ) R ",
"Y W R R S S U W / / ) > + X   + + $ & ..o.o.o.o.o.X + + + + ~ ^ T R Q E W ) W W ",
"Y Y I S C K / ) / / ) % o     + + $ = o.o.o.o.o.o.  o o O + F Z n D E T ) ) W U ",
"[ Y F z x S U / / ~ I : o     + + $ = ............  # $ $ $ x x s A ~ R R Q W U ",
"[ ~ D x a c U R / ~ x i.g X .     o + + + + # & & o <.5.;.k k k k A R Y U R E / ",
") U D s a k L / / R z i.5.i.W +     X & & & y o.o.+ 1.5.;.j k p k K R L c D / / ",
"| ) D h U U U / R R I ~ T T / o O + % ` ....r & & M M G Y l k p M U R S l x S Y ",
"| ) T D R W ) W W W U ) / R _   o O $ w w 9.a ; ; , S +.U S M S L W U n k k S ~ ",
") ) E R ) ) { { W W T / ~ W )     o + + + t.k r y + } } ~ ~ Y R / ) I n s p S / ",
"/ ^ ) ) ) ^ Y Y K S W Q W ( / X   X     + + + + + + W W ) ^ ^ ) U W P x x x A ~ ",
"^ ^ ^ ^ ) ) W ^ K c W U ) _ ( &.+ X X   + + O + + + W W U j k M Y W / U R P U ~ ",
") ^ ^ ) ) ) ) W P L R R W / / &.@       + + + + + + Y L M i i l K Y W ) T Y W R ",
") W W Y ) ) ) W R W / W W ) / &.f - . . o + + + + + S c i u y y k K U ^ R / ) Q ",
") W W Y S S D A D F S / W W / =.&.8 o . . + + + + + 0.y 6 u 7 q y x Y ) E R W W ",
") R U D a y u 9 u y i / R R / 5.=.f O . . + + + + + + ' 6 y 6 r i Z Y ) R / ~ G ",
"W R L u y y 9 6 5 9 r / R T ) 5.5.b + +   . o + + + + ( r y q y C ~ Y U S ~ U k ",
"M I F r q q y 9 5 i G ^ ) W W 5., % + + +     o + + + % 2 r y n ^ ^ U c x A m s ",
"z S F S i q 9 u e u U ~ ^ Y ) 5.* + + + + + - 1 o + + + = K D E ) ) U K C x x k ",
"c Z S U x x h a s V T / U R / 1.< = = = = = b  .X + + + = W ) _ ) ) U G C C s k ",
"z k x Z ) ) / ) W R U ~ R T     p.a.a.a.a.a.a.p.    O + + + ^ ) Y ^ U x B B a p "
};
