/* XPM */
static char *CrazyWizard_on_green_right1670961402[] = {
/* columns rows colors chars-per-pixel */
"40 40 128 2 ",
"   c #252525",
".  c #262826",
"X  c #282728",
"o  c #2B2B2B",
"O  c #30302D",
"+  c #333533",
"@  c #393733",
"#  c #3C3C37",
"$  c #3C3C3B",
"%  c #3F4140",
"&  c #424242",
"*  c #494944",
"=  c #4C4D4C",
"-  c #524B44",
";  c #54534F",
":  c #575A56",
">  c #5C5B56",
",  c #555A58",
"<  c #5F5F5A",
"1  c #6F6356",
"2  c #636563",
"3  c #66686A",
"4  c #6F6F69",
"5  c #726F6A",
"6  c #6E736E",
"7  c #6A7A6C",
"8  c #7C7060",
"9  c #73736D",
"0  c #7C736E",
"q  c #71796E",
"w  c #6C6F72",
"e  c #716D72",
"r  c #6D7272",
"t  c #6E7A74",
"y  c #737572",
"u  c #797574",
"i  c #747A73",
"p  c #7B7C75",
"a  c #747B7B",
"s  c #7C7E7C",
"d  c #9C5E4C",
"f  c #827565",
"g  c #827F72",
"h  c #827F7C",
"j  c #768377",
"k  c #7B8276",
"l  c #7D8876",
"z  c #76837A",
"x  c #7C837B",
"c  c #7E897D",
"v  c #808677",
"b  c #8F8476",
"n  c #82847D",
"m  c #8A857B",
"M  c #838A7E",
"N  c #9F917F",
"B  c #C9917E",
"V  c #7A7D80",
"C  c #807A80",
"Z  c #7D8381",
"A  c #7D8983",
"S  c #828582",
"D  c #848B83",
"F  c #898C85",
"G  c #858D89",
"H  c #8B8D89",
"J  c #908F89",
"K  c #849283",
"L  c #8B9286",
"P  c #8F9987",
"I  c #87928A",
"U  c #8D948B",
"Y  c #8E9A8D",
"T  c #919587",
"R  c #92958D",
"E  c #99958D",
"W  c #939A8D",
"Q  c #989B8E",
"!  c #8E8E96",
"~  c #8E9592",
"^  c #8E9A91",
"/  c #939692",
"(  c #999792",
")  c #939A92",
"_  c #989992",
"`  c #979C9E",
"'  c #989B9B",
"]  c #92A18C",
"[  c #9AA08B",
"{  c #8EA094",
"}  c #93A292",
"|  c #BDAA93",
" . c #999EA0",
".. c #A3A2A3",
"X. c #A4AAAC",
"o. c #AEADA9",
"O. c #A9AEB0",
"+. c #B3B4B5",
"@. c #B8BABC",
"#. c #C09A84",
"$. c #D5AF99",
"%. c #CCB294",
"&. c #C1B49D",
"*. c #CEB599",
"=. c #C3B4A2",
"-. c #C1B8A4",
";. c #CCB8A2",
":. c #CCBCAA",
">. c #D8B6A1",
",. c #CEC1AB",
"<. c #D4C7AF",
"1. c #DBC8AF",
"2. c #E3D5BD",
"3. c #CCC7C6",
"4. c #CFC9C4",
"5. c #C7C6C8",
"6. c #C4C8C8",
"7. c #CCCACC",
"8. c #D6CFC5",
"9. c #D8CEC1",
"0. c #D0CDCB",
"q. c #DAD1C3",
"w. c #D3D4D3",
"e. c #D6D8D6",
"r. c #D9DBD9",
"t. c #E7DBC4",
"y. c #E2E4E2",
"u. c #FCFEFC",
/* pixels */
"c a s Z Z c H ) ) ^ ] _ / ) ) Q Q ) ) ) ^ ^ ) W ^ ~ z k c c P ^ ) F i y i y y w ",
"A k k c x Z U ) ) W _ / ^ ^ W Q W r.r.r.r.r.Y W ) ~ Z s x l U ) W L u i y u 5 6 ",
"Z x k l p S H / R R H G ~ / ) W e.w.w.e.w.w.r.! / ^ S Z Z k R W W P n y q y y 6 ",
"x k k z s x I / ! F 0 9 S ' ) w.w.w.e.w.w.7.3.w./ _ G D A m U ) W W L s 9 y y t ",
"j j x z a x I W F j 9 y F E / w.w.w.w.w.7.7.5.w.) ) / / ) U Y ~ R R U Y s q 9 y ",
"x c x x k L U W P K 9 G U R w.0.w.w.w.7.7.2.2.2.7.) _ R ) Y / ) / H T P I x i y ",
"I I G F F R R ) W Y S ~ / / 7.t.0.q.-.q 2.2.p q 7.) W W W / / / Y D D U W T F F ",
"W / / ) W W W R W W ` G R ( 7.2.7.q.<.k 2.>.N m 7.) ^ R R ) R / R F U W ) _ ) Q ",
"W ) / ) W W R ~ ) Y I c J / 7.2.0.9.2.2.1.B $.2.7.H H F F H D D H R ) ) / ) ) ) ",
") W U U R U Y ^ ^ Y c v J / 7.7.3.8.2.2.d d #.t.3.A V x s c n n F U R / ) ) ( / ",
"' k i i q y G ~ ^ ^ Y E / / 7.7.3.7.4.2.2.2.q.3.7.n x p p h x x s S ~ ) W ^ ) / ",
"E j 7 6 y i i D Y / / R / w.7.0.7.7.3.*.*.*.:.7.7.S Z Z n x Z A Z Z S ! } ) ^ U ",
"n y w 6 5 y y M R / / / R 3.@.w.7...s 8 *.%.;.:.4.Z h s k s S Z x s S ! / ) W R ",
"y e 5 5 4 6 y c I / ( / r.+.X.w.7.V @ & | *.&.=.w.7.S C n s n n n s S H R ) R U ",
"u y y 0 9 q 7 t Z H ) / ' & X.w.7.s & X.X.9.:.O.w.7./ H C s s s s Z M L _ / R E ",
"R s 9 0 9 4 q y Z / Y / ' + + w.7.s & X.X.= a O.7.  U Y H x h x x s M P ~ / W ) ",
"W x y u q r y S H W W 2 & + + O.5.+. .X.X. .3 = 7.  W R / G x x S F I P Y / W W ",
"Q x r u y r s H ) / ~ = + + + X.@.o.X.X.X.a & o V o S 5.! U F n G ) ) Y F H U W ",
"W M j p s s L W ) / / = + + + ` X.X.X. . .% o X + + X ! Y / W ) R ~ Y W D n F R ",
"W P T R W Q W W / ' _ = + + + X ` X.` + +   o + X + X ! ) ~ ^ ) ) W R R W / ) R ",
"] W W R E W W W / / + + + +   X.X.X.X.X.+ $ $ O . +   / ^ U / / W W W ) _ ) ) R ",
"Y W W R G M P W / / + + + +   X.X.X.X.X. .= $ + +   X + , ^ ~ ^ E R Q E W ) W W ",
"Y ^ I c A D R ) / / + o o o . X.X.X.X.X.X.= $ + +   . X & ^ G A n F R R W ) W R ",
"] Y G x x D U / ) / % # # # .  . .` ` `  .* $ + +   X o ; L x x h S R R R R R Y ",
"W Y G s a c L W / R Z -.t.,.X & & $ + + + + o     X . g t.k v k x D R Y U T / R ",
"/ Y F s s k L / / U z | 2.,.+ X.X.y & % % X   X + ) t.2.t.j x p k M P U c H / / ",
"} ^ F h U U R / R R I ~ U n M & & w  . . .% + O X Q W R Y v p j M U R D k n D Y ",
"} ) T F R W W W W R Y ) +.n > : : V 6.w w $ O o   W W Y Y D M M F W U M j k D R ",
"{ ) E R ) ) [ [ ] W E R ^ ) + c n A 7.+ + O o . . Y ] { / ~ Y W R ) U n s k S / ",
"/ ) ) ) / ^ Y ] K M W W Q _ + + + + + +   . .   . W Y W / ~ ^ ) Y W L x x s S ~ ",
"^ ~ ^ ^ / R W ^ I M R Y / ) + + + + + +   . . # %.Y W W T j j M Y Y R U T U Y ~ ",
") ^ ^ ) ) ) ) ^ L L R R R ) + + + + + +       + %.Y W L M a q k I Y R Y Q W Y R ",
"_ W ] Y ) ) ) R E W R W W ) + + + + + o X X - f %.M D x y u i y k K W Y R / W Q ",
") W W P D G D D S F G R W 7.+ + + + + . . o 8 %.*.q q 6 4 i y 6 r c Y ^ ( R W Q ",
"_ R U F i u u 9 u y a R ' + + + + + +   . + 8 *.t.t r 4 6 y 6 6 y A Y ) / R R H ",
") W F y y i y 6 6 9 r / ' + + + + o     + + m 2.2.a r r r y 6 y S ~ Y U S ~ U c ",
"c U D r q q y 9 9 i L 2 & + + + X X . + + + $ > 2.G p q t 6 u n ^ ^ I c x S n p ",
"x A G G q 9 9 y 5 u U = + + + O 1 - + + # + + * 2./ T F F K J R ) ) R L Z x x v ",
"c Z D I c x h s s h R = + + +   | b = = = = = < :.E E ( W Y _ ) ) ^ R I A s s p ",
"z x c A ) / / / / T + + + o     y.u.u.u.u.u.u.y.    / R U ^ Y ) Y ^ I x s V s a "
};
