/* XPM */
static char *CrazyWizard_on_brown_left1670961401[] = {
/* columns rows colors chars-per-pixel */
"40 40 134 2 ",
"   c #252525",
".  c #262826",
"X  c #282728",
"o  c #2B2B2B",
"O  c #30302D",
"+  c #333533",
"@  c #393733",
"#  c #3C3C3B",
"$  c #4A3B2D",
"%  c #4D3F32",
"&  c #4E4033",
"*  c #534335",
"=  c #594736",
"-  c #544639",
";  c #594738",
":  c #57483B",
">  c #5C4B3B",
",  c #614E3D",
"<  c #65513E",
"1  c #69533F",
"2  c #3F4140",
"3  c #424242",
"4  c #494944",
"5  c #4C4D4C",
"6  c #524A44",
"7  c #5D4E41",
"8  c #5F5146",
"9  c #5F534A",
"0  c #565856",
"q  c #5D5B54",
"w  c #5F5F5A",
"e  c #645243",
"r  c #6A5542",
"t  c #6E5945",
"y  c #66564A",
"u  c #69574A",
"i  c #6C5A4B",
"p  c #705A45",
"a  c #725D4B",
"s  c #675A50",
"d  c #6D5C51",
"f  c #715E51",
"g  c #76614E",
"h  c #79624E",
"j  c #6E6154",
"k  c #736254",
"l  c #796553",
"z  c #7D6B57",
"x  c #746459",
"c  c #79675A",
"v  c #75695D",
"b  c #7C6A5D",
"n  c #636563",
"m  c #66686A",
"M  c #7E6D62",
"N  c #7E7062",
"B  c #6C7070",
"V  c #727576",
"C  c #7B7875",
"Z  c #7D7D7C",
"A  c #9C5E4C",
"S  c #826B56",
"D  c #816D5C",
"F  c #886F5B",
"G  c #86715D",
"H  c #8A715D",
"J  c #816E62",
"K  c #847265",
"L  c #8A7564",
"P  c #8E7966",
"I  c #86746A",
"U  c #89766B",
"Y  c #87786C",
"T  c #8B7A6D",
"R  c #917B66",
"E  c #927D6C",
"W  c #997E6B",
"Q  c #837C71",
"!  c #8E7D71",
"~  c #907F72",
"^  c #92806E",
"/  c #9A816A",
"(  c #8F8476",
")  c #8C847A",
"_  c #928074",
"`  c #998574",
"'  c #978579",
"]  c #9A867B",
"[  c #9C8B7B",
"{  c #A18C7A",
"}  c #C9917E",
"|  c #828382",
" . c #9F8D81",
".. c #909290",
"X. c #979C9E",
"o. c #989B9B",
"O. c #BDAA93",
"+. c #999EA0",
"@. c #A3A2A3",
"#. c #A4AAAC",
"$. c #B2AEAA",
"%. c #A9AEB0",
"&. c #B3B4B6",
"*. c #B6B8BA",
"=. c #B8BABC",
"-. c #D5AF99",
";. c #CCB294",
":. c #C3B49D",
">. c #CEB599",
",. c #C2B5A1",
"<. c #CCB8A2",
"1. c #CCBCAA",
"2. c #D8B6A1",
"3. c #CEC1AB",
"4. c #D4C5AD",
"5. c #DBC8AF",
"6. c #D9CFBC",
"7. c #E3D5BD",
"8. c #CCC7C6",
"9. c #C6C8C6",
"0. c #CFC9C4",
"q. c #C7C6C8",
"w. c #CCCACC",
"e. c #D6CFC5",
"r. c #D8CEC1",
"t. c #D0CDCB",
"y. c #D7D0C4",
"u. c #DAD1C3",
"i. c #D3D4D3",
"p. c #D6D8D6",
"a. c #D9DBD9",
"s. c #E7DBC4",
"d. c #E2E4E2",
"f. c #FCFEFC",
/* pixels */
"b I T ~ ~ T _ ! K r , > , > > i T _ _ _ _ _ _ T Y K t e < < < < < < , > y v Y K ",
"T ~ ~ ~ ~ ~ ! Y v y ; * * * = j Y T a.a.p.a.a.^ Y T M k r 8 > : : > : : d J ! ! ",
"~ ^ T K b T ! Y M x y y e u k K U a.i.i.p.i.p.p.U ( U K v x j j j j k k M Y ! ~ ",
"~ E G k y I Y U T K M b v D I T i.w.w.i.i.i.i.i.i._ T T U Y ! ! Y T U T ! ! ! ! ",
"( G i , , b U ! ~ _ _ T E T T E i.q.w.w.i.i.i.p.i.~ ~ ! ! ! ! ! T T T T ! ! ! _ ",
"! i e > y K T ! T ^ _ I L H H w.u.7.7.w.w.i.i.i.i.i.! ! ! !  .` R G k a M T ! _ ",
"! x x M I U K J K U _ E L S p w.> k 7.7.% O.i.t.s.w.~ ~ '  .{ L g r < < c Y ~ ! ",
"! I I T _ I x i j K T ^ G g e w.x E 2.7.j 3.u.t.7.w.~ ] [ { H a r < , > c Y ~ ~ ",
"~ ! ~ ~ ~ M u y y v ! P l < > w.5.-.} 5.7.7.y.w.7.q.~ ] [ R t 1 , , > : M T ~ ~ ",
"U U U ! ! I K N K T T c e > $ 0.7.O.A A 7.7.y.w.w.w.! Y N a , > > * % e K ~ ~ ~ ",
"t t f D E I U ! ( _ _ I v f u w.0.r.7.7.7.e.w.w.w.w._ ! K e & & * 7 d Y ~ ~ ~ ~ ",
"t h h h k t k M Y U I T T U T w.w.1.>.>.>.8.w.w.w.w.i.! I b x b M K ! ! ~ ~ E R ",
"t a p r e , e d M M v I ! _ ( 0.1.<.;.;.N Z @.w.i.=.w.~ ! T Y T ! ! ~ ! T U D S ",
"r e , > > * ; u c f d N T _ w.i.,.>.>.:.3 + Z w.i.#.&.a._ _ ~ T ! ~ _ ! T D f l ",
"> > > * $ % e d x u y b T _ w.i.%.1.6.#.#.3 Z w.i.#.3 o._ _ _ ! ! ~ ] ^ R I J I ",
"; * * 7 d J U U I M M Y ! _   w.%.V 5 #.#.3 Z 0.i.+ + o._ _ ! _ ! ! E k > 7 x U ",
"K M K I U ! ! ~ ( Y K I T _   w.5 m +.#.#.+.%.q.%.+ + 2 n ! ~ ~ U I d 6 - y I ! ",
"! ! ! ~ ~ ~ ~ ~ T Y G P 9.| o | o 5 V #.#.#.%.*.#.+ + + 5 J ! ! U M 9 9 s M ! ~ ",
"~ ! ! ! ~ ~ ~ ~ T I G H ..X + + X o 2 +.+.#.#.#.+.+ + + 5 y ! U I M y M I ! ! ~ ",
"U Y I U ! ~ T I L W H t ... + X + X   + O +.#.X.  + + + 5 % U ! U Y ! _ ~ ~ ~ ~ ",
"D S b J K T K L H g , e ..  +   + # 2 + #.#.#.#.#.  + + + + U ! ! ! ! ! ! E T I ",
"S l l b I I S l g < , 0 + X . + + # 3 X.#.#.#.#.#.  + + + + ! ! ! ! ! ! _ ~ T G ",
"a a a D T I f r > : * & X     + + # 5 #.#.#.#.#.#.  o o o + ~ ! E E ! ~ _ ~ P S ",
"p t a l ! T i > ; ; & 0 O     + + # 5 +.+.+.+.+.+.  # # # $ ~ U P T I ! ' ~ L l ",
"t t e i ! ~ M d 7 7 e s.Q   X     o + + + + # 3 3 o 1.7.,.R / H S S l ~ ' ! b 1 ",
"t 1 r u ! ! ! U I I U s.7.s._ +       3 3 3 B #.#.+ 1.s.:./ F p 1 1 t T ' I l r ",
"1 t < u T ~ T J c U ' ~ I I ! X O + 2 +.+.+.B 2 3 M I ) H S t 1 < r i ! ` J t 1 ",
"r 1 , e J U b f f K ~ M k k T   o O # B B q.C 6 6 6 Q $.G a 1 < e y x ! _ F r 1 ",
"r e > y J I f s k K T i y i U X X o + + + w.C x s + ! ! K t e e y u K ! ~ D t e ",
"r 7 7 u ! T I I I ~ ' E ^ _ ] o   X X   + + + + + + ! ! K a u y u c ~ ~ ~ M t , ",
"> u b T ~ ! ! U I P E E P L L ;.+       + + + + + + M Y ! ! ! T ! ~ _ _ ! J d ; ",
"f J T ! ! ~ T I I P F l a a a ;.@       + + + + + + v Y ~ ~ ! ~ ~ ( _ _ ~ U M u ",
"I ! ! ! ~ ~ P I P P a r < e e ;.K 6 . . o + + + + + N ( _ ' ' ' _ ' ~ ~ ~ ~ I M ",
"! I I K K T ! P K S , , , , , >.;.b o . . + + + + + w.( _ ` ] ' ~ E ~ E T ~ ! ~ ",
"J a e , r I ! U z t , , , , , 7.>.K + . . O + + + + + o.W W T D D K T U T T T I ",
"r , , > , J ! I k 1 , , , , , 7.7.) + + . . o + O + + o.S i t t f c J I I T T ` ",
", , , , , i I I c r > > > , > 7.q 2 + + +   X X + + + 3 n < 1 1 r a l b J J D K ",
"> , , > ; e J U K u ; * * * * 7.4 + + + + + 6 j O + + + 5 < 1 < 1 r a l L J c k ",
"> > ; = % e J T I k > - - ; * 4.w 5 5 5 5 5 ( O.. + + + 5 < 1 < , 1 1 a J J b a ",
"e % $ $ * x ! ! ~ T I K K J     d.f.f.f.f.f.f.d.    o + + + < < , 1 , , l M K K "
};
