/* XPM */
static char *CrazyWizard_on_brown_right1670961402[] = {
/* columns rows colors chars-per-pixel */
"40 40 140 2 ",
"   c #252525",
".  c #262826",
"X  c #282728",
"o  c #2B2B2B",
"O  c #30302D",
"+  c #333533",
"@  c #393733",
"#  c #3C3C37",
"$  c #3C3C3B",
"%  c #4A3B2D",
"&  c #4D3F32",
"*  c #4F4033",
"=  c #534335",
"-  c #594736",
";  c #534539",
":  c #594738",
">  c #57483B",
",  c #5C4B3B",
"<  c #614E3D",
"1  c #65513E",
"2  c #69533F",
"3  c #3F4140",
"4  c #424242",
"5  c #494944",
"6  c #4C4D4C",
"7  c #534A43",
"8  c #5D4E41",
"9  c #574E48",
"0  c #54534F",
"q  c #5F534A",
"w  c #565856",
"e  c #5D5B54",
"r  c #5F5F5A",
"t  c #645243",
"y  c #6A5542",
"u  c #6E5946",
"i  c #65564B",
"p  c #69574A",
"a  c #66584B",
"s  c #6C5A4B",
"d  c #705A44",
"f  c #725D4B",
"g  c #675950",
"h  c #6D5C51",
"j  c #715E51",
"k  c #76614E",
"l  c #79624E",
"z  c #6E6154",
"x  c #736254",
"c  c #796553",
"v  c #7D6B57",
"b  c #746459",
"n  c #79675A",
"m  c #766A5E",
"M  c #7C6A5D",
"N  c #636563",
"B  c #66686A",
"V  c #726B63",
"C  c #7E6D62",
"Z  c #7E7062",
"A  c #6C7070",
"S  c #737575",
"D  c #7D7D7C",
"F  c #9C5E4C",
"G  c #826B56",
"H  c #816D5C",
"J  c #886F5B",
"K  c #86715D",
"L  c #8A725D",
"P  c #816E62",
"I  c #847265",
"U  c #8A7564",
"Y  c #8E7966",
"T  c #86746A",
"R  c #89766B",
"E  c #86786C",
"W  c #8C7A6D",
"Q  c #927B66",
"!  c #917D6C",
"~  c #997E6B",
"^  c #827C72",
"/  c #8E7D71",
"(  c #907F72",
")  c #92806E",
"_  c #9B816C",
"`  c #8F8476",
"'  c #8B847A",
"]  c #928074",
"[  c #998574",
"{  c #978579",
"}  c #9A857B",
"|  c #9C8B7B",
" . c #A08B7A",
".. c #C9917E",
"X. c #828382",
"o. c #9F8D81",
"O. c #909290",
"+. c #979C9E",
"@. c #989B9B",
"#. c #A19083",
"$. c #BEB29C",
"%. c #999EA0",
"&. c #A3A2A3",
"*. c #ABA8A4",
"=. c #A4AAAC",
"-. c #AEADA9",
";. c #A9AEB0",
":. c #B3B4B6",
">. c #B6B8BA",
",. c #B8BABC",
"<. c #C09A84",
"1. c #D5AF99",
"2. c #CCB294",
"3. c #C2B39C",
"4. c #CEB599",
"5. c #C3B4A2",
"6. c #CCB8A2",
"7. c #CCBCAA",
"8. c #D8B6A1",
"9. c #D1C3AA",
"0. c #DBC8AF",
"q. c #C4C0B4",
"w. c #D9CFBC",
"e. c #E3D5BD",
"r. c #CCC7C6",
"t. c #CFC9C4",
"y. c #C7C6C8",
"u. c #C4C8C8",
"i. c #CCCACC",
"p. c #D6CFC5",
"a. c #D8CEC1",
"s. c #D0CDCB",
"d. c #D7D0C4",
"f. c #DAD1C3",
"g. c #D3D4D3",
"h. c #D6D8D6",
"j. c #D9DBD9",
"k. c #E7DBC4",
"l. c #E2E4E2",
"z. c #FCFEFC",
/* pixels */
"M T W ] ( / ] / I p , < , < , s R ] ] ] ( ( ] ( T I s < 2 < 2 1 1 1 t > a M T T ",
"W ( ( ( ( / / T m s - = = = > z E j.j.j.j.j.( / T / C x p t > : > > > ; h C / / ",
"( ] Y I M W / T Z b i i t p k Z h.g.g.g.g.g.j.W R ( R P n b x z z z x z C E / ( ",
"( ! K x p T R ^ R I M M M M T g.g.g.g.h.g.i.r.g.R ] ` W R R / ^ / E W R / / / ( ",
"] H s < < M R / ( ] ] W / Y R g.h.g.g.g.i.i.i.g./ ( ( / ( ( ( ( W W W R / / ( ( ",
"] s t , i I W W W ) ] T I L g.g.g.g.g.i.i.e.e.f.i.( / / ^ ( o.[ Q K c k C R / ( ",
"/ b b C E R T K I R ] ! Y G i.k.s.d.$.; e.e.E Z i.( ( ( [ #. .J k y 1 1 M T ( ( ",
"/ E E R ( T b s z I W ) K k y.e.t.d.9.a e.8.| ^ i.( ( }  . .L f y < < , n Y ( ( ",
"( ( / ( ( C g i i M W Y c 1 i.e.s.w.e.e.0...1.w.i.( ( } | Q y y 1 < : > C R ( ( ",
"R R R / ! E P Z I W W n i : i.i.i.a.e.e.F F <.k.i.] ( ^ H k < , , - & t I ( ( ( ",
"u s j G ! I R / ] ] ] T n j i.i.r.i.s.e.e.e.p.y.i.( ] / C 1 * * = , h R ( ] ( ( ",
"u c l l x f j C E R E R R g.i.s.i.r.t.4.4.4.7.i.i.( ] / R C b M P T ^ / ( ( ! ! ",
"y f d y t < t h P C C T ^ r.,.g.i.&.D Z 2.2.6.7.t.] ] / / R R W / / ( / ( U H G ",
"y 2 < , , = > p M j h Z j.:.=.g.i.D + 4 3.4.4.5.g.i.] ] ] ] ` / ( ( ( / Y P j j ",
"< : : - % & t j b i i M @.4 =.g.i.D 4 =.=.w.q.;.g.i.] ( ] ] ] / ( ( } [ ! U P T ",
": = ; 8 h P T R T C C E @.@ + g.i.X.4 =.=.6 S ;.i.  ! ` ] ] ] / / W W x > 8 b W ",
"I P I T R / ( ( ) R I N 4 + + ;.y.:.%.=.=.%.B 4 i.X R ( ( / ( ( W P h 7 ; i T / ",
"/ / / ( ( ( ( ( ` E I 6 + + + =.>.-.=.=.=.S 5 o X.o X.u.v P ( / T C i q g C W ( ",
"/ / / ( ( ( ( ( R T L 6 + + + +.=.=.=.+.%.3 o X + + o O.8 p W R R C p V T / / ( ",
"W T T T / ( R T U Q L 6 + + +   +.=.+.+ + X o + X +   O.: & R / W R ( ( ( ( ( ( ",
"H G M P T R U U L l + + + +   =.=.=.=.=.+ 3 $ + X +   O.< < T W / / / / ` ) R T ",
"G c c M T I G c k 1 + + + +   =.=.=.=.=.+.6 + + + X X + w x ( ( ( / / / ( ] W K ",
"f f f v W E f 2 , , + O o o . =.=.=.=.=.=.6 $ + +     X 3 I ( W / ( ( ( ( ( U H ",
"u u f M ( R s , - , + $ $ # . %.%.+.+.+.+.6 $ + +   X O 0 ( ( Y Y Y U ( ] ( U c ",
"d y y p / ( P h 8 8 t 3.e.7.o 4 3 $ + + + + o       X E k.Y _ L J G c / } / G y ",
"d 2 t p ^ ( ( R T T T 3.e.9.+ =.=.S 4 3 3       + W k.e.k._ J d 2 y u R ] U c y ",
"y 2 y p R ( Y P n R { ( ' m C 4 4 A %.%.+.3 + + o W ( W L G 2 2 1 t h / [ I y 2 ",
"y 2 < y P R C j j E ( M *.V 7 9 9 S y.A A $ O o   ( ( W K k 2 2 1 i b / { H y 2 ",
"y t 8 t P R j g z T R h i h + C T ^ i.+ + + o   X R ( ^ I s y t t s P / ( H u t ",
"y , 8 h ( R T T T ( [ ! ! { + + + + + +   X X   o T ( / I f i t g n ( ] ( H s 8 ",
"8 p M R / ( / R T U ! ! Y U + + + + + +       @ 2.i C E / / W / ( ] ( ( / P h : ",
"j P R / ( ( R T Y Y J c j f + + + + + +       + 2.7 m E / ( ( ( ( ] ] ( ( R C p ",
"T / ( / ( ( R T Y U f y 1 y + + + + + o o   7 I 2.7 Z ) ( { { } ( ( ( ( ( / T P ",
"^ Y T P I R ( Y U G < < < s.+ + + + + .   o m 2.4.a T ` ( {  .( ( ( ( ( / / / / ",
"P u t < t U ( U v u < < @.+ + + + + + . . + I 4.e.I I ! ~ ~ Y H H T / R / W W Y ",
"u < < < t P ( I x 2 < < @.+ + + + o X   + + ' e.e.U _ Q G f u y j n P U R R R [ ",
"< < < < < s T T M y , N 3 + + + X X   + + + $ e e._ G f y < 2 2 u u G H I P H P ",
"< < < < ; t T R H s > 6 + + + o z 7 O + + + + 5 e.L d 1 < < 1 2 t y f j I P M j ",
", , : - & 8 P R E x , 6 + + +   3.` 6 6 6 6 6 r 9.u < < 1 2 2 1 1 1 2 u P P M f ",
"8 & % % = n / ( / / + + + O     l.z.z.z.z.z.z.l.    < < < 1 1 1 1 1 < < c P P T "
};
