/* XPM */
static char *greenish_floor401670961402[] = {
/* columns rows colors chars-per-pixel */
"40 40 63 1 ",
"  c #6F6F69",
". c #726F6A",
"X c #6E736E",
"o c #6A7A6C",
"O c #73736D",
"+ c #7C736E",
"@ c #71796E",
"# c #6C6F72",
"$ c #716D72",
"% c #6E7273",
"& c #6E7A74",
"* c #737572",
"= c #797574",
"- c #747A73",
"; c #7B7D76",
": c #747B7B",
"> c #7C7E7C",
", c #827F7C",
"< c #768377",
"1 c #7B8276",
"2 c #7D8876",
"3 c #76827A",
"4 c #7C837B",
"5 c #7E897D",
"6 c #818677",
"7 c #81847D",
"8 c #88847D",
"9 c #838A7E",
"0 c #777E80",
"q c #7C7E80",
"w c #817C80",
"e c #7D8381",
"r c #7D8A83",
"t c #838482",
"y c #848B84",
"u c #8A8C85",
"i c #858C89",
"p c #8B8D89",
"a c #918F84",
"s c #908F89",
"d c #859284",
"f c #8B9286",
"g c #8F9987",
"h c #86928B",
"j c #8D948B",
"k c #8E9A8D",
"l c #939586",
"z c #92958D",
"x c #99958D",
"c c #939A8D",
"v c #989A8D",
"b c #8E8E96",
"n c #8E9592",
"m c #8E9A91",
"M c #8C9A99",
"N c #939692",
"B c #999792",
"V c #939A92",
"C c #989993",
"Z c #92A18C",
"A c #9AA08B",
"S c #8EA094",
"D c #93A292",
/* pixels */
"5;>ee5fVVmDVVVDxvVVVmMZVmn3552gmmu-*-*O#",
"e315>tpVccVNnVVxcVkirkkkVne>>2zVVf;****X",
"e622>7nNzzpinNVczkde3hjzVVte45lNcl8-***X",
"43<3>4iNbu=OuNVzvl23>>uzNNurr8jVccf>O@*%",
"3<<3;4hcd1O=uxcVcl1<>11ymVNNVjkmzzgh1-X*",
"1554<ujcgdOyjzcVVd>1416uVCBcnznVNjjgj1-=",
"fihufzNccctnzNcVVf15516uNVcckNNNjyucVpuy",
"VNNNczcccCMizBVzzzpfpuffzVnzcBzNzufcVVVv",
"cNNVVcNnmgh9pBVkcVzcvccccupiuiuujzVVVVNV",
"CVjfghkmmk56sBVjcVBjccvcct,,>476tnzNVNBV",
"C1;-@=ynmmncNNzNNbMmccVDc73<>444>tnccVVN",
"B3oo=--yzNNzczt7pNntefmccte5,6eeeetbDVkj",
"7*  $**9zNBzNj67uNNiukmVje>>64tt4qtbNVVj",
"*$$.XX*5fnBNju37tsNcjmVNztt,1qw77>tpNNNg",
":**+O@o&epVNt153>4imNnNzlzNpqq4>q75zBNzz",
"z;O+. @*tnmNxae335NNzzupNijNp,6>>46gnccc",
"V4**O%=4pVzczl565umzccytpsgjnt74tugkkncc",
"c<*=%%>jVNjcVz9ydfncccuttNcjNnuyicVkupjv",
"v91;>1fBVNNCVBzVCCNcNVcfuNmmcNVjznjcy7uz",
"vzlcVcccVCBcccznVVccNzzzzVnmkNMmNcVczVNz",
"ZcczzcccNNVVczcnVVcmmu7iVmDMmjNVcccBBVcz",
"kkzzyygcNNcdjNczNNVjtt,tjmVhrmMnzzcxcVcc",
"kmh5eyNNNNV5tuyjNNzjtw7uzcVnhCye7uzzVVcc",
"Zkh34djNNNh4>76jnNNjtw,uBvVmmi51>uszczzz",
"cku4>9fNNn41142knjNgtw>pCzxBV111<yzmjlzN",
"Vzu;:<fNNz311ycvvcj3711uvVjVm<<>19cf5iNN",
"DVu,pgznzjimzlznccpqq>77yVczk61;9zgy17ym",
"DVjuNVccccNVNzBmczie0qe4tcckny99iVj811yj",
"SNxNVVAAcczjmcCjjf4e>>>4tkSmNnkzzVj7>4yN",
"NVVcVmkkdyvvvVNziee>>>pzncccVkmVncg<117N",
"mnmmVVcVd5cjNVBNye4etijzckccg3<9cmjjzghn",
"VmmVVVVkgfzzzVNcjuiipsNnVkkg7--2dgVVzNVz",
"vccgVVVczcNcVVNzxvVnnzVVN5y3*-**<dzkxNcv",
"VcckyyuttuyVccNzzzcVVzmmj-O*%=@O@4kVBzcc",
"VNju:***==-zzzNjczcccczNk&%X *X@*emVNzzp",
"ccu-*=OOOO%nzzcVVczzBNzcn*#%%*@*enmgynh4",
"7hy%@@@.OOimckcCVj67lzzzNh<@@@*tmMh51t81",
"5yiu-O+O.:znmcc9y711ehcccNlpyyuzccjft411",
"35ih54,>,,jNzNV63>;<<fkclxBBzkVBVcjjeq>1",
"443rVVNMNlgnNzN5>4>>tslzxxNzzmcmmmh4qq>:"
};
