/* XPM */
static char *greenish_wall401670961403[] = {
/* columns rows colors chars-per-pixel */
"40 40 36 1 ",
"  c #202120",
". c #202121",
"X c #202220",
"o c #202221",
"O c #232824",
"+ c #242A25",
"@ c #262927",
"# c #262C26",
"$ c #282B29",
"% c #2A2E2B",
"& c #273128",
"* c #283129",
"= c #2A362B",
"- c #2B362B",
"; c #2B322D",
": c #2E332F",
"> c #2B362C",
", c #2E372F",
"< c #2E3330",
"1 c #2F3730",
"2 c #2F3731",
"3 c #333834",
"4 c #333835",
"5 c #334634",
"6 c #334734",
"7 c #344634",
"8 c #344734",
"9 c #3A473B",
"0 c #39483B",
"q c #3B483C",
"w c #3C483D",
"e c #424A44",
"r c #434B44",
"t c #424A45",
"y c #434A45",
"u c #434B45",
/* pixels */
"..XXX               XXXXXXXX    .XXXXXXX",
"X...X   oo   Xoo X XX.XXXX.. X X....XXXX",
"XX%33==,332>OXX=>233>=333.X$33--243>=O.X",
"XX3ee759ee55&XX650er650ee.X:ee770ee77=..",
"XX3ee759ee55+X.550ee85wee  3ee550ee87=.X",
"X.=57eeq55ee3X.eu067re055  *77ee088ue3X.",
"XX=55eew55ee: Xeu977eew56o #55ue077ee3.X",
"XX+2>442>>33$ X344==442==oX+=2442>>33%X.",
"  X X.X.X X XXXXXXXXXXXXoo.XXXXXXXXXXXXX",
"    ...XXX  X.X. X.X.X.......X.XX.X.X.X.",
"  =55..*55ee078eu3XXre075eew55XX=55ee3.X",
" X=77X.&57ee068ey3.Xrr075eew57.X=65ee3X.",
"  2ww X;ww000ww09,XX000ww00qwwXX,ww00,..",
"  3ee .<ee55wee77= X65wue579er.X3eu87=. ",
"  3ee..:ee75wee77=XX55wer770reXX3ee55=  ",
"     ......X...X..  .X.X...X.X.XX...X.  ",
"XX..ooooXX.X.X.XX.....XXX       ..X.XX  ",
"X.$::>&&:,=*XXX***::**;,:  @<<&%<2:&&+  ",
" X4ee55qee58=..779ue55qee  <ee55wee77=. ",
"  4ee75qee55&X.779eu55qee  :ee55wee75=XX",
" X-75eew77ee,XXeew55ee957XX&75ee977ee3  ",
"  =77eew55ue3.Xeew58er955XX%75ee977ee3  ",
"  O%&:::**:<O..,,:#&,:;%#.XO&%,<**%:,+  ",
"  o XXXXX.. XX.X.X....XX.XXXXXX.XX.X..  ",
"  XXXX  .X.X.X..     o XXXXXXXXX .XXXX  ",
"  -77X.#57re067ee3 Xee957eew75  =55ee3  ",
" X=75 .&77ye088re3XXeew57eew55  =77ee3  ",
"  ,00  :90wq000ww1X.wq990qww99  ,99ww3  ",
"  4eeXX2yy77wue77=X 55wee559ee.X3eu77-XX",
"  3ee..:ye75wee57=  57wee559eeXX3ee77-XX",
"      ...X.X.X .        .X    X X X  .XX",
"      XXXXXXXXX         XX          XXXX",
" .;33>>233>=O  ==,33>=233XX%33>>,44==+..",
"  4ee560ee55=o 650ee75wee. :er570ue77=..",
". 4ee770ee55&  579ee77wee  :ee55weu77=  ",
"XX=57eew55ee,X eeq55ee077 o&57er077ee3.X",
".X=78er055ee:  eew75ee957.X*88re077ee4 .",
"X.+=>33,>>44$o 43,,=43,==..X=,33,==34%XX",
"..XXoXX o       XXXX..o XXXXo X .X.X.X.X",
"X.XX            XXXXXX  XXXX  X ..XXXXXX"
};
